<?xml version="1.0" encoding="UTF-8"?>
<svg version="1.1" xmlns="http://www.w3.org/2000/svg" width="100" height="100">
<path d="M0 0 C22.44 0 44.88 0 68 0 C68 29.04 68 58.08 68 88 C45.56 88 23.12 88 0 88 C0 58.96 0 29.92 0 0 Z " fill="#8FC9F8" transform="translate(16,6)"/>
<path d="M0 0 C2.64 0 5.28 0 8 0 C13.03038309 13.47424042 13.03038309 13.47424042 12 20 C9.9375 23 9.9375 23 7 25 C3.4375 25.625 3.4375 25.625 0 25 C-3.26355283 22.32221306 -3.91447677 20.60935299 -4.5 16.4375 C-4.23575645 10.70121294 -1.98918291 5.32816851 0 0 Z " fill="#4357B8" transform="translate(46,56)"/>
<path d="M0 0 C2.625 0.375 2.625 0.375 5 1 C5.625 3.375 5.625 3.375 6 6 C5.34 6.66 4.68 7.32 4 8 C1.375 7.625 1.375 7.625 -1 7 C-1.625 4.625 -1.625 4.625 -2 2 C-1.34 1.34 -0.68 0.68 0 0 Z " fill="#8EC7F7" transform="translate(48,69)"/>
<path d="M0 0 C2.64 0 5.28 0 8 0 C8 1.32 8 2.64 8 4 C5.36 4 2.72 4 0 4 C0 2.68 0 1.36 0 0 Z " fill="#1976D2" transform="translate(46,50)"/>
<path d="M0 0 C2.64 0 5.28 0 8 0 C8 1.32 8 2.64 8 4 C5.36 4 2.72 4 0 4 C0 2.68 0 1.36 0 0 Z " fill="#1B77D3" transform="translate(46,44)"/>
<path d="M0 0 C2.64 0 5.28 0 8 0 C8 1.32 8 2.64 8 4 C5.36 4 2.72 4 0 4 C0 2.68 0 1.36 0 0 Z " fill="#227DD5" transform="translate(46,38)"/>
<path d="M0 0 C2.64 0 5.28 0 8 0 C8 1.32 8 2.64 8 4 C5.36 4 2.72 4 0 4 C0 2.68 0 1.36 0 0 Z " fill="#207BD4" transform="translate(46,31)"/>
<path d="M0 0 C2.64 0 5.28 0 8 0 C8 1.32 8 2.64 8 4 C5.36 4 2.72 4 0 4 C0 2.68 0 1.36 0 0 Z " fill="#1976D2" transform="translate(46,25)"/>
<path d="M0 0 C2.64 0 5.28 0 8 0 C8 1.32 8 2.64 8 4 C5.36 4 2.72 4 0 4 C0 2.68 0 1.36 0 0 Z " fill="#1B77D3" transform="translate(46,19)"/>
<path d="M0 0 C2.64 0 5.28 0 8 0 C8 1.32 8 2.64 8 4 C5.36 4 2.72 4 0 4 C0 2.68 0 1.36 0 0 Z " fill="#227DD5" transform="translate(46,13)"/>
<path d="M0 0 C2.64 0 5.28 0 8 0 C8 1.32 8 2.64 8 4 C5.36 4 2.72 4 0 4 C0 2.68 0 1.36 0 0 Z " fill="#1F7AD3" transform="translate(46,6)"/>
</svg>
