<?xml version="1.0" encoding="UTF-8"?>
<svg version="1.1" xmlns="http://www.w3.org/2000/svg" width="24" height="24">
<path d="M0 0 C1.98 0 3.96 0 6 0 C6 1.32 6 2.64 6 4 C4.68 4 3.36 4 2 4 C2.02320313 4.84304687 2.04640625 5.68609375 2.0703125 6.5546875 C2.09738281 8.19824219 2.09738281 8.19824219 2.125 9.875 C2.14820313 10.96554687 2.17140625 12.05609375 2.1953125 13.1796875 C2 16 2 16 0 18 C-2.625 17.625 -2.625 17.625 -5 17 C-5.625 14.625 -5.625 14.625 -6 12 C-5.34 11.34 -4.68 10.68 -4 10 C-2.68 10 -1.36 10 0 10 C0 6.7 0 3.4 0 0 Z " fill="#1F1F1F" transform="translate(12,3)"/>
</svg>
