<?xml version="1.0" encoding="UTF-8"?>
<svg version="1.1" xmlns="http://www.w3.org/2000/svg" width="144" height="144">
<path d="M0 0 C1.19074631 0.00607269 1.19074631 0.00607269 2.4055481 0.01226807 C3.6593779 0.00701111 3.6593779 0.00701111 4.9385376 0.00164795 C7.71017689 -0.00717701 10.48156232 -0.00131755 13.25320435 0.00543213 C15.17369638 0.0040857 17.09418809 0.00214535 19.01467896 -0.00036621 C23.0431136 -0.00331851 27.07145967 0.00098357 31.09988403 0.01031494 C36.27200878 0.02170953 41.44392597 0.01515062 46.61604309 0.00317001 C50.5827695 -0.00404573 54.54944644 -0.00176197 58.51617432 0.0034256 C60.42362492 0.00476289 62.33107997 0.00311163 64.23852539 -0.00153351 C66.90109206 -0.00659407 69.5633193 0.00110477 72.2258606 0.01226807 C73.01969147 0.0082196 73.81352234 0.00417114 74.63140869 0 C80.08717606 0.04252885 80.08717606 0.04252885 82.31570435 2.27105713 C82.56738663 4.13577271 82.56738663 4.13577271 82.56967163 6.4463501 C82.57531128 7.32128113 82.58095093 8.19621216 82.58676147 9.09765625 C82.58271301 10.05980042 82.57866455 11.02194458 82.57449341 12.01324463 C82.57799805 13.02469543 82.58150269 14.03614624 82.58511353 15.07824707 C82.59394328 18.4342528 82.58807725 21.79004912 82.58132935 25.14605713 C82.58267564 27.47011353 82.58461587 29.79416966 82.58712769 32.1182251 C82.59008064 36.99406612 82.58577578 41.86983397 82.57644653 46.7456665 C82.56505196 53.00739363 82.57161051 59.26894933 82.58359146 65.53067017 C82.59080542 70.33121033 82.58852426 75.1317096 82.58333588 79.93225098 C82.58199809 82.24161804 82.58365156 84.55098878 82.58829498 86.86035156 C82.59335257 90.08329152 82.5856607 93.30595068 82.57449341 96.52886963 C82.57854187 97.49101379 82.58259033 98.45315796 82.58676147 99.44445801 C82.58112183 100.31938904 82.57548218 101.19432007 82.56967163 102.09576416 C82.56891758 102.8582547 82.56816353 103.62074524 82.56738663 104.40634155 C82.31570435 106.27105713 82.31570435 106.27105713 80.31570435 108.27105713 C77.58565311 108.46961238 74.95703702 108.54377493 72.2258606 108.52984619 C71.38997406 108.53335083 70.55408752 108.53685547 69.69287109 108.54046631 C66.9212318 108.54929126 64.14984637 108.54343181 61.37820435 108.53668213 C59.45771231 108.53802856 57.5372206 108.53996891 55.61672974 108.54248047 C51.58829509 108.54543277 47.55994903 108.54113069 43.53152466 108.53179932 C38.35939992 108.52040473 33.18748272 108.52696364 28.0153656 108.53894424 C24.04863919 108.54615999 20.08196225 108.54387623 16.11523438 108.53868866 C14.20778377 108.53735137 12.30032872 108.53900263 10.3928833 108.54364777 C7.73031663 108.54870832 5.06808939 108.54100948 2.4055481 108.52984619 C1.61171722 108.53389465 0.81788635 108.53794312 0 108.54211426 C-5.45576737 108.49958541 -5.45576737 108.49958541 -7.68429565 106.27105713 C-7.91134644 104.0244751 -7.91134644 104.0244751 -7.87960815 101.26324463 C-7.87316284 100.27711182 -7.86671753 99.290979 -7.8600769 98.27496338 C-7.84331909 97.24242432 -7.82656128 96.20988525 -7.80929565 95.14605713 C-7.80027222 94.10578369 -7.79124878 93.06551025 -7.7819519 91.99371338 C-7.75833312 89.4192662 -7.72539714 86.84527501 -7.68429565 84.27105713 C-8.52202515 84.28153076 -9.35975464 84.29200439 -10.22286987 84.30279541 C-13.32767729 84.33685732 -16.43238958 84.36194624 -19.537323 84.38092041 C-21.54340926 84.3959382 -23.5494089 84.42134694 -25.5553894 84.44683838 C-26.81222534 84.45328369 -28.06906128 84.459729 -29.36398315 84.46636963 C-30.5265564 84.47684326 -31.68912964 84.48731689 -32.88693237 84.49810791 C-35.68429565 84.27105713 -35.68429565 84.27105713 -37.68429565 82.27105713 C-37.93826294 79.91802979 -37.93826294 79.91802979 -37.94308472 76.93511963 C-37.94938904 75.82056396 -37.95569336 74.7060083 -37.96218872 73.55767822 C-37.95814026 72.34934326 -37.9540918 71.1410083 -37.94992065 69.89605713 C-37.95183411 68.66065186 -37.95374756 67.42524658 -37.95571899 66.15240479 C-37.95743176 62.86514306 -37.94936265 59.57806926 -37.9382019 56.29083252 C-37.93429963 54.27311183 -37.93818736 52.25556512 -37.94503784 50.237854 C-37.95735569 46.37383884 -37.95590543 42.51008285 -37.94992065 38.64605713 C-37.95396912 37.43772217 -37.95801758 36.22938721 -37.96218872 34.98443604 C-37.9558844 33.86988037 -37.94958008 32.75532471 -37.94308472 31.60699463 C-37.94149353 30.62263428 -37.93990234 29.63827393 -37.93826294 28.62408447 C-37.68429565 26.27105713 -37.68429565 26.27105713 -35.68429565 24.27105713 C-32.88693237 24.04400635 -32.88693237 24.04400635 -29.36398315 24.07574463 C-27.47872925 24.0854126 -27.47872925 24.0854126 -25.5553894 24.09527588 C-23.577323 24.1204126 -23.577323 24.1204126 -21.55929565 24.14605713 C-20.21945845 24.1560873 -18.87961414 24.16521309 -17.5397644 24.17340088 C-14.25442993 24.19703638 -10.969451 24.22998479 -7.68429565 24.27105713 C-7.69476929 23.61508545 -7.70524292 22.95911377 -7.71603394 22.28326416 C-7.75752068 19.32090055 -7.78359827 16.35859797 -7.80929565 13.39605713 C-7.82605347 12.36351807 -7.84281128 11.330979 -7.8600769 10.26715088 C-7.86652222 9.28101807 -7.87296753 8.29488525 -7.87960815 7.27886963 C-7.89008179 6.36766357 -7.90055542 5.45645752 -7.91134644 4.51763916 C-7.41370567 -0.40632896 -4.17316247 0.03253067 0 0 Z " fill="#0D7238" transform="translate(49.684295654296875,17.72894287109375)"/>
<path d="M0 0 C7.05375 -0.04125 14.1075 -0.0825 21.375 -0.125 C23.60169434 -0.14320801 25.82838867 -0.16141602 28.12255859 -0.18017578 C29.88118244 -0.18601524 31.63980898 -0.19111209 33.3984375 -0.1953125 C34.31665283 -0.20554443 35.23486816 -0.21577637 36.1809082 -0.22631836 C37.49007202 -0.22668091 37.49007202 -0.22668091 38.82568359 -0.22705078 C39.58513275 -0.231492 40.34458191 -0.23593323 41.12704468 -0.24050903 C43 0 43 0 45 2 C45.1878075 4.52976535 45.25191906 6.94907405 45.22705078 9.47900391 C45.22734283 10.24982803 45.22763489 11.02065216 45.22793579 11.81483459 C45.22653974 14.36885745 45.21096579 16.92259046 45.1953125 19.4765625 C45.19158334 21.24490194 45.18873591 23.01324345 45.18673706 24.78158569 C45.17909293 29.44069095 45.15943778 34.09967194 45.1373291 38.75872803 C45.11329476 44.34623649 45.1040934 49.93378645 45.09242249 55.52133179 C45.07301379 64.01430768 45.03469673 72.50701078 45 81 C30.15 81 15.3 81 0 81 C0 54.27 0 27.54 0 0 Z " fill="#19AB65" transform="translate(87,18)"/>
<path d="M0 0 C4.95 0 9.9 0 15 0 C15 8.91 15 17.82 15 27 C29.85 27 44.7 27 60 27 C60.04125 31.08375 60.0825 35.1675 60.125 39.375 C60.14320801 40.66196777 60.16141602 41.94893555 60.18017578 43.27490234 C60.1851709 44.28504395 60.19016602 45.29518555 60.1953125 46.3359375 C60.20578613 47.37282715 60.21625977 48.4097168 60.22705078 49.47802734 C60 52 60 52 58 54 C55.26994877 54.19855525 52.64133268 54.2727178 49.91015625 54.25878906 C48.65632645 54.26404602 48.65632645 54.26404602 47.37716675 54.26940918 C44.60552746 54.27823414 41.83414203 54.27237468 39.0625 54.265625 C37.14200796 54.26697143 35.22151626 54.26891178 33.30102539 54.27142334 C29.27259074 54.27437564 25.24424468 54.27007356 21.21582031 54.26074219 C16.04369557 54.2493476 10.87177838 54.25590651 5.69966125 54.26788712 C1.73293484 54.27510286 -2.2337421 54.2728191 -6.20046997 54.26763153 C-8.10792058 54.26629424 -10.01537563 54.2679455 -11.92282104 54.27259064 C-14.58538772 54.27765119 -17.24761496 54.26995235 -19.91015625 54.25878906 C-20.70398712 54.26283752 -21.49781799 54.26688599 -22.31570435 54.27105713 C-27.77147172 54.22852828 -27.77147172 54.22852828 -30 52 C-30.22705078 49.75341797 -30.22705078 49.75341797 -30.1953125 46.9921875 C-30.18886719 46.00605469 -30.18242188 45.01992187 -30.17578125 44.00390625 C-30.15902344 42.97136719 -30.14226563 41.93882813 -30.125 40.875 C-30.11597656 39.83472656 -30.10695312 38.79445312 -30.09765625 37.72265625 C-30.07403747 35.14820908 -30.04110149 32.57421788 -30 30 C-29.19256348 29.98018066 -28.38512695 29.96036133 -27.55322266 29.93994141 C-23.91014125 29.84494101 -20.26765314 29.73516088 -16.625 29.625 C-15.35398437 29.5940625 -14.08296875 29.563125 -12.7734375 29.53125 C-10.95585938 29.47324219 -10.95585938 29.47324219 -9.1015625 29.4140625 C-7.98088379 29.3826416 -6.86020508 29.3512207 -5.70556641 29.31884766 C-2.85289588 29.26588797 -2.85289588 29.26588797 -1 27 C-0.62760773 24.18597317 -0.62760773 24.18597317 -0.5859375 20.8984375 C-0.54726562 19.68671875 -0.50859375 18.475 -0.46875 17.2265625 C-0.42234375 15.32003906 -0.42234375 15.32003906 -0.375 13.375 C-0.33632812 12.09625 -0.29765625 10.8175 -0.2578125 9.5 C-0.16329244 6.33357789 -0.080548 3.16680834 0 0 Z " fill="#174729" transform="translate(72,72)"/>
<path d="M0 0 C14.85 0 29.7 0 45 0 C45 8.91 45 17.82 45 27 C30.15 27 15.3 27 0 27 C0 18.09 0 9.18 0 0 Z " fill="#129551" transform="translate(87,72)"/>
<path d="M0 0 C14.85 0 29.7 0 45 0 C45.04125 4.08375 45.0825 8.1675 45.125 12.375 C45.14320801 13.66196777 45.16141602 14.94893555 45.18017578 16.27490234 C45.1851709 17.28504395 45.19016602 18.29518555 45.1953125 19.3359375 C45.21102295 20.89127197 45.21102295 20.89127197 45.22705078 22.47802734 C45 25 45 25 43 27 C41.12704468 27.24050903 41.12704468 27.24050903 38.82568359 27.22705078 C37.53457169 27.22682419 37.53457169 27.22682419 36.21737671 27.22659302 C35.28712677 27.21627045 34.35687683 27.20594788 33.3984375 27.1953125 C32.44683746 27.1924826 31.49523743 27.18965271 30.51480103 27.18673706 C27.46807408 27.17551989 24.42163846 27.15041263 21.375 27.125 C19.31250424 27.11497218 17.25000388 27.10584599 15.1875 27.09765625 C10.12479679 27.077275 5.06272544 27.03812931 0 27 C0 18.09 0 9.18 0 0 Z " fill="#26663F" transform="translate(87,99)"/>
<path d="M0 0 C6.08742662 -0.04584673 12.1742572 -0.08569134 18.26171875 -0.10986328 C20.33367947 -0.11993712 22.40562593 -0.13359666 24.47753906 -0.15087891 C27.45120764 -0.17506664 30.4246887 -0.18646908 33.3984375 -0.1953125 C34.32868744 -0.20563507 35.25893738 -0.21595764 36.21737671 -0.22659302 C37.07811798 -0.22674408 37.93885925 -0.22689514 38.82568359 -0.22705078 C39.58513275 -0.231492 40.34458191 -0.23593323 41.12704468 -0.24050903 C43 0 43 0 45 2 C45.22705078 4.52197266 45.22705078 4.52197266 45.1953125 7.6640625 C45.19031738 8.6742041 45.18532227 9.6843457 45.18017578 10.72509766 C45.16196777 12.01206543 45.14375977 13.2990332 45.125 14.625 C45.08375 18.70875 45.0425 22.7925 45 27 C30.15 27 15.3 27 0 27 C0 18.09 0 9.18 0 0 Z " fill="#29C17E" transform="translate(87,18)"/>
<path d="M0 0 C1.13917374 0.00666183 1.13917374 0.00666183 2.30136108 0.01345825 C3.59247299 0.01368484 3.59247299 0.01368484 4.90966797 0.01391602 C5.83991791 0.02423859 6.77016785 0.03456116 7.72860718 0.04519653 C8.68020721 0.04802643 9.63180725 0.05085632 10.61224365 0.05377197 C13.6589706 0.06498914 16.70540621 0.09009641 19.75204468 0.11550903 C21.81454044 0.12553685 23.8770408 0.13466304 25.93954468 0.14285278 C31.00224789 0.16323404 36.06431923 0.20237972 41.12704468 0.24050903 C41.12704468 9.15050903 41.12704468 18.06050903 41.12704468 27.24050903 C38.52829468 27.28175903 35.92954468 27.32300903 33.25204468 27.36550903 C32.02638794 27.39282104 32.02638794 27.39282104 30.77597046 27.42068481 C28.89209419 27.43528121 27.00835156 27.33994386 25.12704468 27.24050903 C24.46704468 26.58050903 23.80704468 25.92050903 23.12704468 25.24050903 C20.31301785 24.86811677 20.31301785 24.86811677 17.02548218 24.82644653 C15.81376343 24.78777466 14.60204468 24.74910278 13.35360718 24.70925903 C12.08259155 24.67832153 10.81157593 24.64738403 9.50204468 24.61550903 C8.22329468 24.57683716 6.94454468 24.53816528 5.62704468 24.49832153 C2.46052451 24.40379854 -0.70598572 24.31824547 -3.87295532 24.24050903 C-3.93083316 20.61557569 -3.96650952 16.99076046 -3.99795532 13.36550903 C-4.01471313 12.33296997 -4.03147095 11.30043091 -4.04873657 10.23660278 C-4.05518188 9.25046997 -4.0616272 8.26433716 -4.06826782 7.24832153 C-4.07874146 6.33711548 -4.08921509 5.42590942 -4.1000061 4.48709106 C-3.80565102 1.57455825 -2.98503633 0.38331304 0 0 Z " fill="#159053" transform="translate(45.872955322265625,17.759490966796875)"/>
<path d="M0 0 C4.95 0 9.9 0 15 0 C15 8.91 15 17.82 15 27 C10.05 27 5.1 27 0 27 C0 18.09 0 9.18 0 0 Z " fill="#0C7F45" transform="translate(72,45)"/>
<path d="M0 0 C2.31 0 4.62 0 7 0 C8.65 2.97 10.3 5.94 12 9 C14.40072955 6.11912454 16.47291037 3.43595166 18 0 C20.31 0 22.62 0 25 0 C24.59007813 0.73605469 24.18015625 1.47210938 23.7578125 2.23046875 C23.21898438 3.20628906 22.68015625 4.18210937 22.125 5.1875 C21.59132813 6.15042969 21.05765625 7.11335938 20.5078125 8.10546875 C19.76144531 9.53826172 19.76144531 9.53826172 19 11 C18.525625 11.80566406 18.05125 12.61132812 17.5625 13.44140625 C16.68333062 16.19842997 16.68333062 16.19842997 18.5546875 19.296875 C19.30980336 20.46001838 20.08404604 21.61092392 20.875 22.75 C25 28.97153465 25 28.97153465 25 30 C22.69 30 20.38 30 18 30 C17.16151196 28.54462432 16.32936066 27.08559627 15.5 25.625 C15.0359375 24.81289062 14.571875 24.00078125 14.09375 23.1640625 C13 21 13 21 13 19 C12.34 19 11.68 19 11 19 C10.731875 19.886875 10.46375 20.77375 10.1875 21.6875 C8.08305275 27.55780022 8.08305275 27.55780022 6 30 C2.3125 30.3125 2.3125 30.3125 -1 30 C0.89456744 26.02947037 2.70080147 22.39368228 5.375 18.875 C7.32129656 16.12219895 7.32129656 16.12219895 6.5625 13.125 C4.91688021 9.83376041 3.07134774 6.78848392 1.0234375 3.734375 C0 2 0 2 0 0 Z " fill="#F5F9F7" transform="translate(30,57)"/>
</svg>
