<?xml version="1.0" encoding="UTF-8"?>
<svg version="1.1" xmlns="http://www.w3.org/2000/svg" width="512" height="512">
<path d="M0 0 C1.30385399 -0.00043808 1.30385399 -0.00043808 2.63404846 -0.00088501 C5.48009557 0.00049779 8.32587416 0.01600916 11.171875 0.03173828 C13.15584164 0.03547215 15.13981014 0.03831735 17.1237793 0.04031372 C22.32530886 0.04792075 27.52672532 0.06754391 32.72821045 0.08972168 C38.04405182 0.11024342 43.35991161 0.11932894 48.67578125 0.12939453 C59.09119531 0.1507927 69.50652572 0.18489305 79.921875 0.22705078 C79.92996185 1.45321106 79.93804871 2.67937134 79.94638062 3.94268799 C80.02408729 15.53536219 80.11188728 27.12792256 80.20940208 38.72044754 C80.25920756 44.67933097 80.30553834 50.63819802 80.34375 56.59716797 C80.38080252 62.35497488 80.42721519 68.1126392 80.47993851 73.87032318 C80.49837686 76.05975578 80.51352314 78.24921882 80.52521896 80.43869781 C80.55610109 107.54090629 80.55610109 107.54090629 93.953125 130.48095703 C103.70145521 139.12679751 115.16154501 141.67863552 127.90112305 141.65942383 C129.4543502 141.6747113 129.4543502 141.6747113 131.03895569 141.69030762 C134.42055837 141.72021124 137.80187675 141.72966886 141.18359375 141.73876953 C143.54442774 141.75563299 145.90525284 141.77378545 148.2660675 141.79316711 C154.44893618 141.84049199 160.63176881 141.87041454 166.8147583 141.89660645 C173.13634355 141.92650054 179.45780481 141.97300037 185.77929688 142.01806641 C198.16009116 142.10390022 210.54091109 142.17133388 222.921875 142.22705078 C222.96868558 162.22928178 223.00390813 182.23150159 223.02549934 202.23377609 C223.03579291 211.52208034 223.04981639 220.81035047 223.07275391 230.09863281 C223.09274672 238.19838238 223.10560538 246.29810723 223.11005199 254.39788079 C223.11264942 258.6829257 223.11871416 262.96789991 223.13333511 267.25292206 C223.14701231 271.29448573 223.15107737 275.33595025 223.14809036 279.37753487 C223.14863603 280.85282749 223.15255265 282.32812377 223.16028595 283.80339622 C223.26724715 305.28008261 218.34945096 323.16081513 203.546875 339.10205078 C188.49710599 353.07930752 170.6979446 356.53138728 150.98193359 356.51757812 C149.27097279 356.52357025 147.56001467 356.53037736 145.84906006 356.53793335 C141.2206197 356.55553406 136.59225339 356.56028631 131.96378279 356.56156492 C129.06518894 356.5629908 126.16661366 356.56726872 123.26802444 356.57255936 C113.13586491 356.59104224 103.00375786 356.59923243 92.87158203 356.59765625 C83.45978781 356.59645634 74.04822347 356.61753363 64.63648736 356.64914358 C56.52997056 356.67538959 48.42352843 356.68602002 40.31696951 356.68474543 C35.48697097 356.68423811 30.65717675 356.68979298 25.82722092 356.71110153 C21.27818811 356.73062401 16.72955154 356.73051379 12.18050385 356.71606827 C10.52263172 356.7139961 8.86473386 356.7185846 7.20690536 356.73078918 C-12.12983893 356.86377991 -29.29744118 352.39834836 -43.82519531 338.7590332 C-57.06815767 325.53600173 -63.14500139 308.60141283 -63.2165305 290.02114415 C-63.2149819 289.12658663 -63.2134333 288.2320291 -63.21183777 287.31036377 C-63.21410333 286.3401097 -63.21636888 285.36985563 -63.21870309 284.37019992 C-63.22500986 281.13399471 -63.22421586 277.89783175 -63.22338867 274.66162109 C-63.22638224 272.33511298 -63.22978523 270.00860536 -63.23356628 267.68209839 C-63.2423905 261.37204762 -63.24474374 255.06201042 -63.24538207 248.75195408 C-63.24609349 244.80662712 -63.24822955 240.86130359 -63.25087929 236.91597748 C-63.25965061 223.853697 -63.26429965 210.79142505 -63.26354881 197.72914162 C-63.26350886 197.02591258 -63.2634689 196.32268354 -63.26342773 195.59814453 C-63.26338685 194.89404995 -63.26334597 194.18995537 -63.26330385 193.4645246 C-63.2628976 182.05970658 -63.27246345 170.65492162 -63.2865661 159.25011316 C-63.30095542 147.52027088 -63.30783487 135.79044469 -63.30697232 124.06059337 C-63.30671775 117.48302019 -63.30954642 110.90548442 -63.32015038 104.32791901 C-63.32985545 98.13910237 -63.32989399 91.95035872 -63.32263374 85.76153946 C-63.32159089 83.49609139 -63.32393294 81.23063872 -63.3299942 78.96519852 C-63.38951818 55.16760633 -60.44721763 35.38415053 -43.703125 17.35205078 C-31.89747561 6.38772353 -16.05391139 -0.14367537 0 0 Z " fill="#218BE5" transform="translate(176.078125,77.77294921875)"/>
<path d="M0 0 C6.15969099 5.09574406 11.79035685 10.64845087 17.43334961 16.30395508 C18.4686455 17.33789371 19.50415352 18.37161998 20.53985596 19.40515137 C23.33300713 22.19377021 26.12301819 24.98551054 28.91231227 27.77798676 C31.83494262 30.70315843 34.76002276 33.62587877 37.68470764 36.54899597 C42.58790938 41.45038291 47.48900838 46.35386503 52.38891602 51.25854492 C58.06015488 56.93524332 63.73501183 62.60830571 69.41172594 68.27952844 C74.28839975 73.15167316 79.16313338 78.02575265 84.03623205 82.90147322 C86.94591432 85.81271705 89.85627419 88.72327481 92.76838493 91.63208961 C95.49981552 94.36064384 98.22881181 97.09160905 100.9559021 99.82450104 C101.95965655 100.82958358 102.96427373 101.83380533 103.96978951 102.83712578 C105.33579316 104.20042034 106.69844927 105.56706673 108.06089783 106.93391418 C108.8261122 107.69950559 109.59132658 108.46509699 110.37972927 109.25388813 C112 111 112 111 112 112 C98.67415197 112.09268583 85.34838066 112.16375812 72.02227592 112.20724869 C65.83439624 112.22812214 59.64673712 112.25643601 53.45898438 112.30175781 C47.48730425 112.34522322 41.51583627 112.36913893 35.54401016 112.37950897 C33.26582627 112.38689901 30.98765397 112.40132997 28.70956039 112.42292023 C25.51819531 112.45196262 22.32770647 112.45595554 19.13623047 112.45410156 C18.19467606 112.46848267 17.25312164 112.48286377 16.28303528 112.49768066 C10.72453445 112.46274629 7.26890479 111.92229761 3 108 C-0.61442913 102.88710832 -0.41024991 97.97736796 -0.34057617 91.95556641 C-0.34101425 90.95982605 -0.34145233 89.96408569 -0.34190369 88.93817139 C-0.33981987 85.65909973 -0.31650754 82.38054444 -0.29296875 79.1015625 C-0.28737136 76.82327555 -0.28310194 74.54498497 -0.28010559 72.26669312 C-0.26866814 66.27925595 -0.23921016 60.29203817 -0.20599365 54.3046875 C-0.17526921 48.19143644 -0.16159516 42.07814982 -0.14648438 35.96484375 C-0.11433963 23.97646628 -0.06315636 11.9882514 0 0 Z " fill="#218BE5" transform="translate(284,80)"/>
</svg>
