<?xml version="1.0" encoding="UTF-8"?>
<svg version="1.1" xmlns="http://www.w3.org/2000/svg" width="144" height="144">
<path d="M0 0 C1.65798545 -0.04644488 3.3155238 -0.11441086 4.97167969 -0.20507812 C16.29037363 -0.8134026 16.29037363 -0.8134026 21.07250977 0.6796875 C23.63818359 3.15087891 23.63818359 3.15087891 25.86938477 6.171875 C29.79337887 10.84733641 32.23729563 12.0252669 38.34228516 12.59765625 C45.50459156 12.91053868 52.6642043 12.79948728 59.82824707 12.6071167 C64.58612589 12.48583301 69.34420747 12.42748387 74.10343933 12.39260864 C76.6291584 12.3708831 79.15482758 12.32210487 81.67939758 12.2428894 C91.1568365 12.11163044 91.1568365 12.11163044 94.82910156 15.07470703 C98.23495152 19.02948111 98.21089773 21.06452226 98.26538086 26.23730469 C98.27764709 27.24741104 98.27764709 27.24741104 98.29016113 28.27792358 C98.31501136 30.51079419 98.33153179 32.74360114 98.34594727 34.9765625 C98.35127094 35.73951881 98.35659462 36.50247513 98.36207962 37.28855133 C98.38881212 41.32842504 98.40818493 45.36826787 98.42260742 49.40820312 C98.43923809 53.5758076 98.48400112 57.74261864 98.53497887 61.90992355 C98.56868289 65.11847817 98.58018831 68.32684538 98.5858345 71.53556061 C98.59254046 73.07134298 98.60774571 74.60711329 98.63172531 76.14272308 C98.66344536 78.29729728 98.6634049 80.44974457 98.65600586 82.60449219 C98.66409271 83.82867859 98.67217957 85.05286499 98.68051147 86.31414795 C97.86787251 90.8124389 96.26189223 92.45116205 93.07250977 95.6796875 C90.76094149 96.83547164 89.42138036 96.81501551 86.84820557 96.83358765 C85.96222687 96.84218811 85.07624817 96.85078857 84.16342163 96.85964966 C82.70157944 96.86603958 82.70157944 96.86603958 81.21020508 96.87255859 C79.67340591 96.88482483 79.67340591 96.88482483 78.1055603 96.89733887 C74.70392446 96.92221796 71.30233042 96.93871551 67.90063477 96.953125 C66.74050621 96.95844868 65.58037766 96.96377235 64.38509369 96.96925735 C58.24444743 96.99600007 52.10382158 97.01537127 45.96313477 97.02978516 C39.61642639 97.04643412 33.27023717 97.09121148 26.92372513 97.1421566 C22.04754023 97.17579374 17.17147907 97.18735879 12.2951889 97.19301224 C9.95559472 97.19973461 7.61600895 97.21498207 5.2765274 97.23890305 C2.00138417 97.27047975 -1.27235227 97.27060199 -4.54760742 97.26318359 C-5.51407196 97.27958893 -6.4805365 97.29599426 -7.47628784 97.31289673 C-11.92634362 97.27164025 -14.97180587 97.12527948 -18.51373291 94.26821899 C-22.28109017 90.22807676 -22.0902861 87.31652028 -22.12036133 82.02050781 C-22.12853882 81.23006073 -22.13671631 80.43961365 -22.1451416 79.62521362 C-22.1700043 77.00275431 -22.18651486 74.38034921 -22.20092773 71.7578125 C-22.20625141 70.86246544 -22.21157509 69.96711838 -22.21706009 69.04463959 C-22.243797 64.30450801 -22.26316912 59.56440281 -22.27758789 54.82421875 C-22.29422642 49.93025885 -22.33899572 45.03697359 -22.38995934 40.14326859 C-22.42363445 36.37883745 -22.43516566 32.61456628 -22.44081497 28.84999847 C-22.44752801 27.04628094 -22.46275151 25.24257395 -22.48670578 23.43900299 C-22.5183635 20.91092697 -22.51839364 18.38466791 -22.51098633 15.85644531 C-22.52739166 15.1143985 -22.543797 14.37235168 -22.56069946 13.6078186 C-22.49206688 7.87101506 -20.8577338 5.55363315 -16.92749023 1.6796875 C-12.16788373 -0.70011575 -5.27668875 0.11580075 0 0 Z " fill="#FFC927" transform="translate(33.927490234375,23.3203125)"/>
<path d="M0 0 C1.65798545 -0.04644488 3.3155238 -0.11441086 4.97167969 -0.20507812 C19.44574974 -0.98298864 19.44574974 -0.98298864 24.6862793 3.14648438 C27.48061601 5.73955836 29.8680805 8.56531353 32.07250977 11.6796875 C32.07250977 12.0096875 32.07250977 12.3396875 32.07250977 12.6796875 C31.50954193 12.68111252 30.9465741 12.68253754 30.36654663 12.68400574 C24.4934654 12.70373145 18.62141949 12.75806601 12.7487793 12.83227539 C10.55875076 12.85543573 8.36861115 12.86984647 6.1784668 12.87524414 C3.02525777 12.88454775 -0.12620898 12.92557103 -3.27905273 12.97265625 C-4.74189194 12.96675728 -4.74189194 12.96675728 -6.23428345 12.96073914 C-10.72885154 13.05665125 -13.91209264 13.1756815 -17.46801758 16.09887695 C-18.27964355 16.95054443 -19.09126953 17.80221191 -19.92749023 18.6796875 C-20.58749023 19.3396875 -21.24749023 19.9996875 -21.92749023 20.6796875 C-22.78857067 7.78261611 -22.78857067 7.78261611 -19.55249023 3.9296875 C-14.00876541 -0.82207663 -6.99394818 0.15348725 0 0 Z " fill="#FFA000" transform="translate(33.927490234375,23.3203125)"/>
</svg>
