<?xml version="1.0" encoding="UTF-8"?>
<svg version="1.1" xmlns="http://www.w3.org/2000/svg" width="100" height="100">
<path d="M0 0 C0.69933655 -0.00350464 1.3986731 -0.00700928 2.11920166 -0.01062012 C4.43633888 -0.01943969 6.75317205 -0.01358763 9.0703125 -0.00683594 C10.67692117 -0.00818253 12.28352945 -0.01012301 13.89013672 -0.01263428 C17.25947952 -0.01558584 20.62871637 -0.01128691 23.99804688 -0.00195312 C28.32270744 0.00944148 32.64711979 0.00288218 36.97177124 -0.00909805 C40.2899768 -0.01631581 43.60812325 -0.01402912 46.92633057 -0.00884247 C48.5211795 -0.00750574 50.11603375 -0.00915451 51.71087646 -0.01380157 C53.93760448 -0.0188655 56.16392726 -0.01115882 58.390625 0 C60.29352295 0.00238678 60.29352295 0.00238678 62.23486328 0.00482178 C65.1953125 0.25878906 65.1953125 0.25878906 67.1953125 2.25878906 C67.44927979 5.21923828 67.44927979 5.21923828 67.45410156 9.06347656 C67.4576062 9.76281311 67.46111084 10.46214966 67.46472168 11.18267822 C67.47354126 13.49981544 67.4676892 15.81664861 67.4609375 18.13378906 C67.46228409 19.74039773 67.46422457 21.34700601 67.46673584 22.95361328 C67.4696874 26.32295608 67.46538847 29.69219294 67.45605469 33.06152344 C67.44466008 37.386184 67.45121939 41.71059635 67.46319962 46.0352478 C67.47041738 49.35345336 67.46813069 52.67159981 67.46294403 55.98980713 C67.4616073 57.58465606 67.46325608 59.17951031 67.46790314 60.77435303 C67.47296706 63.00108105 67.46526038 65.22740382 67.45410156 67.45410156 C67.45251038 68.7227002 67.45091919 69.99129883 67.44927979 71.29833984 C67.1953125 74.25878906 67.1953125 74.25878906 65.1953125 76.25878906 C62.23486328 76.51275635 62.23486328 76.51275635 58.390625 76.51757812 C57.69128845 76.52108276 56.9919519 76.5245874 56.27142334 76.52819824 C53.95428612 76.53701782 51.63745295 76.53116576 49.3203125 76.52441406 C47.71370383 76.52576065 46.10709555 76.52770113 44.50048828 76.5302124 C41.13114548 76.53316397 37.76190863 76.52886503 34.39257812 76.51953125 C30.06791756 76.50813664 25.74350521 76.51469595 21.41885376 76.52667618 C18.1006482 76.53389394 14.78250175 76.53160725 11.46429443 76.52642059 C9.8694455 76.52508386 8.27459125 76.52673264 6.67974854 76.5313797 C4.45302052 76.53644362 2.22669774 76.52873695 0 76.51757812 C-1.26859863 76.51598694 -2.53719727 76.51439575 -3.84423828 76.51275635 C-6.8046875 76.25878906 -6.8046875 76.25878906 -8.8046875 74.25878906 C-9.05865479 71.29833984 -9.05865479 71.29833984 -9.06347656 67.45410156 C-9.0669812 66.75476501 -9.07048584 66.05542847 -9.07409668 65.3348999 C-9.08291626 63.01776268 -9.0770642 60.70092952 -9.0703125 58.38378906 C-9.07165909 56.77718039 -9.07359957 55.17057212 -9.07611084 53.56396484 C-9.0790624 50.19462205 -9.07476347 46.82538519 -9.06542969 43.45605469 C-9.05403508 39.13139412 -9.06059439 34.80698178 -9.07257462 30.48233032 C-9.07979238 27.16412476 -9.07750569 23.84597831 -9.07231903 20.527771 C-9.0709823 18.93292207 -9.07263108 17.33806782 -9.07727814 15.7432251 C-9.08234206 13.51649708 -9.07463538 11.2901743 -9.06347656 9.06347656 C-9.06188538 7.79487793 -9.06029419 6.5262793 -9.05865479 5.21923828 C-8.54953986 -0.7154193 -5.08613549 0.00637947 0 0 Z " fill="#4FE5FE" transform="translate(20.8046875,11.7412109375)"/>
<path d="M0 0 C3.77774175 1.47738457 5.98753581 3.805823 8.6015625 6.7890625 C10.32906948 8.756501 11.99545754 10.422366 13.9765625 12.1640625 C17.10392326 12.1072014 18.31064839 10.94133857 20.9765625 9.1640625 C25.05681631 8.68512622 27.16531367 8.59592158 30.57543945 10.98413086 C31.36394287 11.81565674 32.15244629 12.64718262 32.96484375 13.50390625 C33.83560547 14.40173828 34.70636719 15.29957031 35.60351562 16.22460938 C36.48974609 17.17400391 37.37597656 18.12339844 38.2890625 19.1015625 C40.07514038 20.96645663 41.86281866 22.82981975 43.65234375 24.69140625 C44.8266394 25.94038696 44.8266394 25.94038696 46.0246582 27.21459961 C47.8290102 29.22180053 47.8290102 29.22180053 49.9765625 30.1640625 C50.03035476 33.12263659 50.07013343 36.08023971 50.1015625 39.0390625 C50.11832031 39.88082031 50.13507813 40.72257812 50.15234375 41.58984375 C50.15878906 42.39550781 50.16523437 43.20117188 50.171875 44.03125 C50.18234863 44.77487793 50.19282227 45.51850586 50.20361328 46.28466797 C49.9765625 48.1640625 49.9765625 48.1640625 47.9765625 50.1640625 C45.01611328 50.41802979 45.01611328 50.41802979 41.171875 50.42285156 C40.12287018 50.42810852 40.12287018 50.42810852 39.05267334 50.43347168 C36.73553612 50.44229126 34.41870295 50.4364392 32.1015625 50.4296875 C30.49495383 50.43103409 28.88834555 50.43297457 27.28173828 50.43548584 C23.91239548 50.4384374 20.54315863 50.43413847 17.17382812 50.42480469 C12.84916756 50.41341008 8.52475521 50.41996939 4.20010376 50.43194962 C0.8818982 50.43916738 -2.43624825 50.43688069 -5.75445557 50.43169403 C-7.3493045 50.4303573 -8.94415875 50.43200608 -10.53900146 50.43665314 C-12.76572948 50.44171706 -14.99205226 50.43401038 -17.21875 50.42285156 C-19.12164795 50.42046478 -19.12164795 50.42046478 -21.06298828 50.41802979 C-24.0234375 50.1640625 -24.0234375 50.1640625 -26.0234375 48.1640625 C-27.8531022 39.13531908 -29.15007588 26.62336435 -24.44287109 18.40429688 C-20.58937579 13.76017226 -16.02899469 10.08183724 -11.08886719 6.64550781 C-9.17585969 5.27338849 -7.54545676 3.80706306 -5.84375 2.1875 C-3.0234375 0.1640625 -3.0234375 0.1640625 0 0 Z " fill="#1697E0" transform="translate(38.0234375,37.8359375)"/>
<path d="M0 0 C4.54533311 0.40460183 5.64459003 1.41186663 8.73754883 4.67358398 C10.04369141 6.02033203 10.04369141 6.02033203 11.3762207 7.39428711 C12.26245117 8.34368164 13.14868164 9.29307617 14.06176758 10.27124023 C15.84784546 12.13613437 17.63552374 13.99949749 19.42504883 15.86108398 C20.2079126 16.69373779 20.99077637 17.5263916 21.79736328 18.38427734 C23.60171528 20.39147827 23.60171528 20.39147827 25.74926758 21.33374023 C25.74926758 26.94374023 25.74926758 32.55374023 25.74926758 38.33374023 C20.83425194 34.29250516 16.34235551 29.96798367 11.87353516 25.43847656 C8.6207766 22.15896926 5.25374276 19.09818899 1.74145508 16.10327148 C-2.09622156 12.69451165 -5.66012993 8.99914694 -9.25073242 5.33374023 C-8.44635742 4.69436523 -7.64198242 4.05499023 -6.81323242 3.39624023 C-2.97286479 0.30521263 -2.97286479 0.30521263 0 0 Z " fill="#27ACE9" transform="translate(62.250732421875,46.666259765625)"/>
<path d="M0 0 C3.04569423 2.31737605 4.73181298 3.77825913 5.5625 7.5625 C4.79326562 10.89584898 3.81374263 12.05202434 1 14 C-2.96521177 14.56645882 -5.07855498 14.57590314 -8.5 12.4375 C-10 10 -10 10 -9.9375 6.4375 C-8.32913961 0.54017858 -6.19913106 -0.99186097 0 0 Z " fill="#F7F7DF" transform="translate(66,23)"/>
</svg>
