<?xml version="1.0" encoding="UTF-8"?>
<svg version="1.1" xmlns="http://www.w3.org/2000/svg" width="100" height="100">
<path d="M0 0 C1.39702148 0.02030273 1.39702148 0.02030273 2.82226562 0.04101562 C5.11127646 0.07623118 7.39908458 0.12547901 9.6875 0.1875 C9.73648438 1.48945313 9.78546875 2.79140625 9.8359375 4.1328125 C9.91100629 5.85939471 9.98655233 7.58595622 10.0625 9.3125 C10.0934375 10.1684375 10.124375 11.024375 10.15625 11.90625 C10.451657 18.76267364 10.451657 18.76267364 12.6875 25.1875 C17.0479721 28.12888355 22.90141041 27.63954431 28 27.8125 C28.93134766 27.85117187 29.86269531 27.88984375 30.82226562 27.9296875 C33.11048407 28.02356313 35.39870295 28.10924509 37.6875 28.1875 C37.76185222 32.93803511 37.81619691 37.68822887 37.85229492 42.43920898 C37.86734876 44.05417789 37.88779648 45.66910613 37.91381836 47.28393555 C37.95035286 49.60996555 37.96726015 51.93545341 37.98046875 54.26171875 C37.99595261 54.97962082 38.01143646 55.69752289 38.02738953 56.43717957 C38.0288716 60.88700462 37.52700873 63.7181914 34.6875 67.1875 C30.3382032 70.85296399 26.04487558 70.62542741 20.625 70.5859375 C19.75609131 70.58880768 18.88718262 70.59167786 17.99194336 70.59463501 C16.15966132 70.59667134 14.32735732 70.59117169 12.49511719 70.57861328 C9.69676931 70.5625532 6.89986566 70.57847632 4.1015625 70.59765625 C2.31770516 70.59567374 0.53384871 70.59182991 -1.25 70.5859375 C-2.08345947 70.59201019 -2.91691895 70.59808289 -3.77563477 70.6043396 C-8.41435602 70.54841049 -11.62142495 70.29823337 -15.3125 67.1875 C-17.85994365 63.58977542 -18.68945311 61.13278553 -18.70068359 56.7421875 C-18.71014008 55.67758301 -18.71959656 54.61297852 -18.7293396 53.51611328 C-18.72326691 52.3764209 -18.71719421 51.23672852 -18.7109375 50.0625 C-18.71380768 48.88284668 -18.71667786 47.70319336 -18.71963501 46.48779297 C-18.72167435 43.99641438 -18.71615362 41.50501974 -18.70361328 39.01367188 C-18.68755878 35.20145851 -18.70346742 31.39030541 -18.72265625 27.578125 C-18.7206738 25.15624766 -18.71683008 22.73437098 -18.7109375 20.3125 C-18.71701019 19.17280762 -18.72308289 18.03311523 -18.7293396 16.85888672 C-18.71988312 15.79428223 -18.71042664 14.72967773 -18.70068359 13.6328125 C-18.69829681 12.69969238 -18.69591003 11.76657227 -18.69345093 10.80517578 C-18.10139318 6.73689527 -16.32232185 4.07761066 -13.26953125 1.38671875 C-8.85967868 -0.4016891 -4.70627444 -0.12971357 0 0 Z M-3.3125 44.1875 C-3.3125 47.4875 -3.3125 50.7875 -3.3125 54.1875 C-2.9825 53.1975 -2.6525 52.2075 -2.3125 51.1875 C-1.6525 50.8575 -0.9925 50.5275 -0.3125 50.1875 C-0.9725 50.1875 -1.6325 50.1875 -2.3125 50.1875 C-2.3125 48.5375 -2.3125 46.8875 -2.3125 45.1875 C-0.6625 45.1875 0.9875 45.1875 2.6875 45.1875 C2.6875 44.8575 2.6875 44.5275 2.6875 44.1875 C0.7075 44.1875 -1.2725 44.1875 -3.3125 44.1875 Z M5.6875 44.1875 C5.66060784 45.66656892 5.64115379 47.14577483 5.625 48.625 C5.61339844 49.44871094 5.60179688 50.27242187 5.58984375 51.12109375 C5.45482652 53.17913938 5.45482652 53.17913938 6.6875 54.1875 C9.02694736 53.90019945 11.3614143 53.56813221 13.6875 53.1875 C14.37243373 50.32971967 14.37243373 50.32971967 14.6875 47.1875 C14.0275 46.1975 13.3675 45.2075 12.6875 44.1875 C9.10392759 43.93734127 9.10392759 43.93734127 5.6875 44.1875 Z M16.6875 44.1875 C16.6875 47.1575 16.6875 50.1275 16.6875 53.1875 C17.6775 53.6825 17.6775 53.6825 18.6875 54.1875 C18.6875 51.2175 18.6875 48.2475 18.6875 45.1875 C20.3375 45.1875 21.9875 45.1875 23.6875 45.1875 C23.6875 44.8575 23.6875 44.5275 23.6875 44.1875 C21.3775 44.1875 19.0675 44.1875 16.6875 44.1875 Z M2.6875 45.1875 C3.6875 49.1875 3.6875 49.1875 3.6875 49.1875 Z " fill="#218BE6" transform="translate(40.3125,14.8125)"/>
<path d="M0 0 C5.41947104 4.52216046 10.46149992 9.30918427 15.4375 14.3125 C16.16904297 15.04017578 16.90058594 15.76785156 17.65429688 16.51757812 C18.34458984 17.20916016 19.03488281 17.90074219 19.74609375 18.61328125 C20.37185303 19.24016846 20.9976123 19.86705566 21.64233398 20.51293945 C23 22 23 22 23 23 C19.35418313 23.02887512 15.70839537 23.04675585 12.0625 23.0625 C10.50112305 23.07506836 10.50112305 23.07506836 8.90820312 23.08789062 C7.91884766 23.09111328 6.92949219 23.09433594 5.91015625 23.09765625 C4.53549194 23.10551147 4.53549194 23.10551147 3.13305664 23.11352539 C1 23 1 23 0 22 C-0.08700342 20.36527118 -0.10701063 18.72685945 -0.09765625 17.08984375 C-0.09443359 16.10048828 -0.09121094 15.11113281 -0.08789062 14.09179688 C-0.07951172 13.05087891 -0.07113281 12.00996094 -0.0625 10.9375 C-0.05798828 9.89271484 -0.05347656 8.84792969 -0.04882812 7.77148438 C-0.03699913 5.1809334 -0.02051689 2.59049441 0 0 Z " fill="#218AE6" transform="translate(55,15)"/>
<path d="M0 0 C1.65 0 3.3 0 5 0 C5.625 2.3125 5.625 2.3125 6 5 C5.01 6.485 5.01 6.485 4 8 C2.68 8 1.36 8 0 8 C0 5.36 0 2.72 0 0 Z " fill="#228AE6" transform="translate(48,60)"/>
</svg>
