<?xml version="1.0" encoding="UTF-8"?>
<svg version="1.1" xmlns="http://www.w3.org/2000/svg" width="144" height="144">
<path d="M0 0 C12.01370058 8.51629104 20.21870296 20.14952703 23.375 34.68359375 C24.84326099 53.62314788 21.98439174 68.48405917 9.6875 83.37109375 C0.80902845 92.94293165 -11.93861728 99.3769163 -25.03125 99.921875 C-43.47839374 100.3242395 -56.87374784 96.12301948 -70.71484375 83.61328125 C-75.625 78.6529189 -75.625 78.6529189 -75.625 75.68359375 C-76.19009277 75.69406738 -76.75518555 75.70454102 -77.33740234 75.71533203 C-79.89155653 75.75684163 -82.44563982 75.78290335 -85 75.80859375 C-85.88945313 75.82535156 -86.77890625 75.84210938 -87.6953125 75.859375 C-88.54609375 75.86582031 -89.396875 75.87226562 -90.2734375 75.87890625 C-91.05895996 75.88937988 -91.84448242 75.89985352 -92.65380859 75.91064453 C-94.625 75.68359375 -94.625 75.68359375 -96.625 73.68359375 C-96.87896729 71.33056641 -96.87896729 71.33056641 -96.88378906 68.34765625 C-96.89009338 67.23310059 -96.89639771 66.11854492 -96.90289307 64.97021484 C-96.8988446 63.76187988 -96.89479614 62.55354492 -96.890625 61.30859375 C-96.89253845 60.07318848 -96.8944519 58.8377832 -96.89642334 57.56494141 C-96.8981361 54.27767968 -96.89006699 50.99060588 -96.87890625 47.70336914 C-96.87500397 45.68564845 -96.87889171 43.66810174 -96.88574219 41.65039062 C-96.89806004 37.78637547 -96.89660978 33.92261947 -96.890625 30.05859375 C-96.89467346 28.85025879 -96.89872192 27.64192383 -96.90289307 26.39697266 C-96.89658875 25.28241699 -96.89028442 24.16786133 -96.88378906 23.01953125 C-96.88219788 22.0351709 -96.88060669 21.05081055 -96.87896729 20.03662109 C-96.625 17.68359375 -96.625 17.68359375 -94.625 15.68359375 C-92.65380859 15.45654297 -92.65380859 15.45654297 -90.2734375 15.48828125 C-89.42265625 15.49472656 -88.571875 15.50117187 -87.6953125 15.5078125 C-86.36113281 15.53294922 -86.36113281 15.53294922 -85 15.55859375 C-83.65421875 15.57212891 -83.65421875 15.57212891 -82.28125 15.5859375 C-80.06223414 15.60954405 -77.84374923 15.64247065 -75.625 15.68359375 C-75.32263428 15.06266846 -75.02026855 14.44174316 -74.70874023 13.80200195 C-69.01915079 2.68045035 -57.03189241 -3.53444192 -45.625 -7.31640625 C-30.36806504 -11.71982233 -13.09710556 -8.41656944 0 0 Z " fill="#DB4B2C" transform="translate(108.625,26.31640625)"/>
<path d="M0 0 C0 17.82 0 35.64 0 54 C-1.98 54 -3.96 54 -6 54 C-5.98428955 54.80219971 -5.9685791 55.60439941 -5.95239258 56.4309082 C-5.89011417 60.05803404 -5.85103136 63.68504749 -5.8125 67.3125 C-5.78736328 68.57513672 -5.76222656 69.83777344 -5.73632812 71.13867188 C-5.72666016 72.34716797 -5.71699219 73.55566406 -5.70703125 74.80078125 C-5.6913208 75.91622314 -5.67561035 77.03166504 -5.65942383 78.1809082 C-6 81 -6 81 -7.18643188 82.65292358 C-9.66009115 84.49030042 -11.29187196 84.37431543 -14.35766602 84.37231445 C-15.99935509 84.38165764 -15.99935509 84.38165764 -17.67420959 84.39118958 C-19.44615944 84.37737495 -19.44615944 84.37737495 -21.25390625 84.36328125 C-22.46570053 84.36377975 -23.67749481 84.36427826 -24.92601013 84.36479187 C-27.48902017 84.36244998 -30.05203245 84.35271478 -32.61499023 84.33618164 C-36.55017529 84.31257394 -40.48468396 84.315622 -44.41992188 84.32226562 C-46.90625406 84.31668965 -49.39258338 84.30958029 -51.87890625 84.30078125 C-53.06223038 84.30169266 -54.2455545 84.30260406 -55.46473694 84.30354309 C-56.55604416 84.29401108 -57.64735138 84.28447906 -58.77172852 84.2746582 C-59.73530777 84.27005081 -60.69888702 84.26544342 -61.69166565 84.26069641 C-64 84 -64 84 -66 82 C-66.25396729 79.64697266 -66.25396729 79.64697266 -66.25878906 76.6640625 C-66.26509338 75.54950684 -66.27139771 74.43495117 -66.27789307 73.28662109 C-66.2738446 72.07828613 -66.26979614 70.86995117 -66.265625 69.625 C-66.26753845 68.38959473 -66.2694519 67.15418945 -66.27142334 65.88134766 C-66.2731361 62.59408593 -66.26506699 59.30701213 -66.25390625 56.01977539 C-66.25000397 54.0020547 -66.25389171 51.98450799 -66.26074219 49.96679688 C-66.27306004 46.10278172 -66.27160978 42.23902572 -66.265625 38.375 C-66.26967346 37.16666504 -66.27372192 35.95833008 -66.27789307 34.71337891 C-66.27158875 33.59882324 -66.26528442 32.48426758 -66.25878906 31.3359375 C-66.25719788 30.35157715 -66.25560669 29.3672168 -66.25396729 28.35302734 C-66 26 -66 26 -64 24 C-62.02880859 23.77294922 -62.02880859 23.77294922 -59.6484375 23.8046875 C-58.79765625 23.81113281 -57.946875 23.81757812 -57.0703125 23.82421875 C-55.73613281 23.84935547 -55.73613281 23.84935547 -54.375 23.875 C-53.02921875 23.88853516 -53.02921875 23.88853516 -51.65625 23.90234375 C-49.43723414 23.9259503 -47.21874923 23.9588769 -45 24 C-44.69763428 23.37907471 -44.39526855 22.75814941 -44.08374023 22.1184082 C-38.39415079 10.9968566 -26.40689241 4.78196433 -15 1 C-11 0 -11 0 0 0 Z " fill="#9B341F" transform="translate(78,18)"/>
<path d="M0 0 C16.18005199 0 28.02601511 4.72587532 39.8984375 15.73828125 C50.1698881 26.79250039 54 39.19275676 54 54 C36.18 54 18.36 54 0 54 C0 36.18 0 18.36 0 0 Z " fill="#F7A277" transform="translate(78,18)"/>
<path d="M0 0 C0 17.82 0 35.64 0 54 C-1.98 54 -3.96 54 -6 54 C-6.029729 52.78884521 -6.029729 52.78884521 -6.06005859 51.55322266 C-6.15505899 47.91014125 -6.26483912 44.26765314 -6.375 40.625 C-6.4059375 39.35398438 -6.436875 38.08296875 -6.46875 36.7734375 C-6.52675781 34.95585938 -6.52675781 34.95585938 -6.5859375 33.1015625 C-6.6173584 31.98088379 -6.6487793 30.86020508 -6.68115234 29.70556641 C-6.73411203 26.85289588 -6.73411203 26.85289588 -9 25 C-11.72000357 24.75443629 -14.34574257 24.62643514 -17.0703125 24.5859375 C-17.86654022 24.56657135 -18.66276794 24.5472052 -19.48312378 24.5272522 C-22.03030634 24.46739526 -24.57753395 24.42104721 -27.125 24.375 C-28.8502803 24.33682579 -30.57554143 24.29777439 -32.30078125 24.2578125 C-36.53369876 24.16168891 -40.76670549 24.07768092 -45 24 C-39.38572941 12.47077446 -28.87342203 6.15302647 -17.19140625 1.7265625 C-10.86027274 -0.37252989 -7.47389944 0 0 0 Z " fill="#C06245" transform="translate(78,18)"/>
<path d="M0 0 C2.536875 -0.061875 5.07375 -0.12375 7.6875 -0.1875 C8.47729248 -0.21481201 9.26708496 -0.24212402 10.08081055 -0.27026367 C14.61476924 -0.32357739 17.43712454 0.16424198 21 3 C23.49999253 6.74998879 23.22130695 8.5225828 22.58203125 12.8359375 C22 15 22 15 20.125 17.5625 C15.35257306 19.75781639 11.22202578 19.25166389 6 19 C6 22.63 6 26.26 6 30 C4.02 30 2.04 30 0 30 C0 20.1 0 10.2 0 0 Z " fill="#FDFBFB" transform="translate(30,57)"/>
<path d="M0 0 C7.37042925 -0.36248013 7.37042925 -0.36248013 10.0625 1.1875 C11 3 11 3 10.8125 5.5625 C10 8 10 8 8 10 C5.31160615 10.26991906 2.70858064 10.08737357 0 10 C0 6.7 0 3.4 0 0 Z " fill="#A03E2A" transform="translate(36,62)"/>
</svg>
