<?xml version="1.0" encoding="UTF-8"?>
<svg version="1.1" xmlns="http://www.w3.org/2000/svg" width="100" height="100">
<path d="M0 0 C0.77512939 0.00404846 1.55025879 0.00809692 2.34887695 0.01226807 C3.16525635 0.00876343 3.98163574 0.00525879 4.82275391 0.00164795 C7.52946399 -0.00717635 10.23591407 -0.0013178 12.94262695 0.00543213 C14.81827851 0.00408568 16.69392972 0.00214532 18.56958008 -0.00036621 C22.50385861 -0.00331842 26.43804644 0.00098327 30.37231445 0.01031494 C35.4233726 0.02170953 40.47421822 0.01515057 45.52526855 0.00317001 C49.39934907 -0.00404598 53.27337893 -0.00176186 57.14746094 0.0034256 C59.01025416 0.00476282 60.87305193 0.00311186 62.73583984 -0.00153351 C65.33614337 -0.00659448 67.9360994 0.00110532 70.53637695 0.01226807 C71.31150635 0.0082196 72.08663574 0.00417114 72.88525391 0 C78.21409851 0.04252869 78.21409851 0.04252869 80.44262695 2.27105713 C80.69659424 5.00372314 80.69659424 5.00372314 80.70141602 8.52496338 C80.70772034 9.83972656 80.71402466 11.15448975 80.72052002 12.50909424 C80.71694035 13.95058322 80.71283842 15.39207099 80.70825195 16.83355713 C80.70959863 18.30564437 80.71153918 19.77773118 80.71405029 21.24981689 C80.71700145 24.3366926 80.71270427 27.42345266 80.70336914 30.51031494 C80.69197452 34.47177842 80.69853405 38.43297091 80.71051407 42.39442444 C80.71773296 45.4346929 80.71544463 48.47489686 80.71025848 51.51516724 C80.70892206 52.97604403 80.71056945 54.43692663 80.71521759 55.89779663 C80.72028301 57.93758028 80.71119675 59.97738439 80.70141602 62.01715088 C80.69982483 63.17916016 80.69823364 64.34116943 80.69659424 65.53839111 C80.44262695 68.27105713 80.44262695 68.27105713 78.44262695 70.27105713 C75.77300209 70.46953321 73.20711403 70.54379532 70.53637695 70.52984619 C69.71999756 70.53335083 68.90361816 70.53685547 68.0625 70.54046631 C65.35578992 70.5492906 62.64933983 70.54343205 59.94262695 70.53668213 C58.0669754 70.53802858 56.19132418 70.53996894 54.31567383 70.54248047 C50.38139529 70.54543268 46.44720746 70.54113099 42.51293945 70.53179932 C37.46188131 70.52040473 32.41103569 70.52696368 27.35998535 70.53894424 C23.48590484 70.54616024 19.61187498 70.54387612 15.73779297 70.53868866 C13.87499975 70.53735144 12.01220197 70.5390024 10.14941406 70.54364777 C7.54911053 70.54870873 4.9491545 70.54100893 2.34887695 70.52984619 C1.57374756 70.53389465 0.79861816 70.53794312 0 70.54211426 C-5.32884461 70.49958557 -5.32884461 70.49958557 -7.55737305 68.27105713 C-7.81134033 65.53839111 -7.81134033 65.53839111 -7.81616211 62.01715088 C-7.82246643 60.7023877 -7.82877075 59.38762451 -7.83526611 58.03302002 C-7.83168644 56.59153103 -7.82758451 55.15004326 -7.82299805 53.70855713 C-7.82434472 52.23646989 -7.82628528 50.76438308 -7.82879639 49.29229736 C-7.83174754 46.20542165 -7.82745036 43.1186616 -7.81811523 40.03179932 C-7.80672061 36.07033584 -7.81328014 32.10914335 -7.82526016 28.14768982 C-7.83247905 25.10742136 -7.83019072 22.0672174 -7.82500458 19.02694702 C-7.82366816 17.56607023 -7.82531554 16.10518763 -7.82996368 14.64431763 C-7.83502911 12.60453398 -7.82594284 10.56472987 -7.81616211 8.52496338 C-7.81377533 6.78194946 -7.81377533 6.78194946 -7.81134033 5.00372314 C-7.32712769 -0.206363 -4.5898881 0.03663119 0 0 Z " fill="#3BAAEA" transform="translate(13.557373046875,15.72894287109375)"/>
<path d="M0 0 C4.99165573 1.01034607 7.16915625 3.53518516 10.5078125 7.22265625 C11.09626953 7.84269531 11.68472656 8.46273437 12.29101562 9.1015625 C13.73388242 10.62654366 15.15440578 12.172611 16.5703125 13.72265625 C19.55893098 12.35441674 19.55893098 12.35441674 21.8828125 10.09765625 C23.5703125 8.72265625 23.5703125 8.72265625 26.6796875 8.16796875 C32.355649 8.97719218 34.73911344 12.11740016 38.5078125 16.22265625 C39.19166016 16.93808594 39.87550781 17.65351562 40.58007812 18.390625 C42.26040849 20.1532093 43.9222413 21.92996164 45.5703125 23.72265625 C44.5803125 25.20765625 44.5803125 25.20765625 43.5703125 26.72265625 C43.40332018 29.84787458 43.40332018 29.84787458 43.5703125 32.72265625 C46.98687274 32.88942907 46.98687274 32.88942907 50.5703125 32.72265625 C51.2303125 32.06265625 51.8903125 31.40265625 52.5703125 30.72265625 C55.0703125 32.34765625 55.0703125 32.34765625 57.5703125 34.72265625 C58.0078125 37.84765625 58.0078125 37.84765625 57.5703125 40.72265625 C55.04222287 43.25074588 53.46161335 42.96619004 50.01293945 42.99371338 C49.23781006 42.98966492 48.46268066 42.98561646 47.6640625 42.98144531 C46.43949341 42.98670227 46.43949341 42.98670227 45.19018555 42.99206543 C42.48347547 43.00088973 39.77702538 42.99503118 37.0703125 42.98828125 C35.19466095 42.9896277 33.31900973 42.99156806 31.44335938 42.99407959 C27.50908084 42.9970318 23.57489301 42.99273011 19.640625 42.98339844 C14.58956686 42.97200385 9.53872124 42.97856281 4.4876709 42.99054337 C0.61359039 42.99775936 -3.26043947 42.99547524 -7.13452148 42.99028778 C-8.99731471 42.98895056 -10.86011248 42.99060152 -12.72290039 42.99524689 C-15.32320392 43.00030786 -17.92315995 42.99260806 -20.5234375 42.98144531 C-21.29856689 42.98549377 -22.07369629 42.98954224 -22.87231445 42.99371338 C-28.20115906 42.95118469 -28.20115906 42.95118469 -30.4296875 40.72265625 C-31.30938243 35.16327274 -32.00314318 29.16073362 -28.8515625 24.27734375 C-25.07919387 20.83613725 -21.6640154 18.85351445 -16.4296875 18.72265625 C-16.20667969 17.69011719 -15.98367187 16.65757813 -15.75390625 15.59375 C-14.56766427 11.46737452 -12.27072642 8.74812464 -9.2421875 5.78515625 C-8.78521484 5.29208984 -8.32824219 4.79902344 -7.85742188 4.29101562 C-5.32324362 1.75683737 -3.51491892 0.74061503 0 0 Z " fill="#426CCB" transform="translate(36.4296875,43.27734375)"/>
<path d="M0 0 C5.18162647 1.08465717 7.55224821 3.93132466 11.0390625 7.75390625 C11.99329102 8.75550781 11.99329102 8.75550781 12.96679688 9.77734375 C14.52874477 11.42149943 16.07202563 13.07965337 17.6015625 14.75390625 C16.2399343 16.35233935 14.87626506 17.94905731 13.50537109 19.53955078 C12.17419082 21.08787151 10.8523288 22.64423057 9.53759766 24.20654297 C-5.55405144 41.85038333 -5.55405144 41.85038333 -13.828125 43.08984375 C-19.56097839 43.31752926 -24.94554342 42.57153761 -30.3984375 40.75390625 C-31.60782811 28.64320303 -31.60782811 28.64320303 -28.828125 24.30078125 C-25.04217223 20.87470992 -21.63503518 18.88482119 -16.3984375 18.75390625 C-16.17542969 17.72136719 -15.95242187 16.68882813 -15.72265625 15.625 C-14.53641427 11.49862452 -12.23947642 8.77937464 -9.2109375 5.81640625 C-8.75396484 5.32333984 -8.29699219 4.83027344 -7.82617188 4.32226562 C-5.31266897 1.80876272 -3.47617226 0.77115086 0 0 Z " fill="#16417E" transform="translate(36.3984375,43.24609375)"/>
<path d="M0 0 C3.5 0.125 3.5 0.125 4.5 1.125 C4.625 4.625 4.625 4.625 4.5 8.125 C3.5 9.125 3.5 9.125 0 9.25 C-3.5 9.125 -3.5 9.125 -4.5 8.125 C-4.625 4.625 -4.625 4.625 -4.5 1.125 C-3.5 0.125 -3.5 0.125 0 0 Z " fill="#EDEFFD" transform="translate(83.5,53.875)"/>
<path d="M0 0 C6.15234375 -0.09765625 6.15234375 -0.09765625 8 0 C9 1 9 1 9.125 4 C9 7 9 7 8 8 C4.5 8.125 4.5 8.125 1 8 C0 7 0 7 -0.0625 3.4375 C-0.041875 2.303125 -0.02125 1.16875 0 0 Z " fill="#F2F6FD" transform="translate(79,40)"/>
<path d="M0 0 C2.33294775 -0.04241723 4.66702567 -0.04092937 7 0 C8 1 8 1 8.0625 4.5625 C8.041875 5.696875 8.02125 6.83125 8 8 C5.36 8 2.72 8 0 8 C0 5.36 0 2.72 0 0 Z " fill="#F1F7FB" transform="translate(13,54)"/>
<path d="M0 0 C1.134375 0.020625 2.26875 0.04125 3.4375 0.0625 C3.4375 2.7025 3.4375 5.3425 3.4375 8.0625 C1.10455225 8.10491723 -1.22952567 8.10342937 -3.5625 8.0625 C-4.5625 7.0625 -4.5625 7.0625 -4.6875 4.0625 C-4.50687014 -0.27261656 -4.44520527 0.07798606 0 0 Z " fill="#F9FAFD" transform="translate(83.5625,68.9375)"/>
<path d="M0 0 C2.33294775 -0.04241723 4.66702567 -0.04092937 7 0 C8 1 8 1 8.125 4 C8 7 8 7 7 8 C4.66702567 8.04092937 2.33294775 8.04241723 0 8 C0 5.36 0 2.72 0 0 Z " fill="#F8F9FB" transform="translate(13,69)"/>
<path d="M0 0 C2.33294775 -0.04241723 4.66702567 -0.04092937 7 0 C8 1 8 1 8.125 4 C8 7 8 7 7 8 C4.66702567 8.04092937 2.33294775 8.04241723 0 8 C0 5.36 0 2.72 0 0 Z " fill="#F6FBFE" transform="translate(13,40)"/>
<path d="M0 0 C1.134375 0.020625 2.26875 0.04125 3.4375 0.0625 C3.4375 2.7025 3.4375 5.3425 3.4375 8.0625 C1.10455225 8.10491723 -1.22952567 8.10342937 -3.5625 8.0625 C-4.5625 7.0625 -4.5625 7.0625 -4.6875 4.0625 C-4.50687014 -0.27261656 -4.44520527 0.07798606 0 0 Z " fill="#F8FCFE" transform="translate(83.5625,24.9375)"/>
<path d="M0 0 C2.33294775 -0.04241723 4.66702567 -0.04092937 7 0 C8 1 8 1 8.125 4 C8 7 8 7 7 8 C4.66702567 8.04092937 2.33294775 8.04241723 0 8 C0 5.36 0 2.72 0 0 Z " fill="#F8FCFE" transform="translate(13,25)"/>
</svg>
