<?xml version="1.0" encoding="UTF-8"?>
<svg version="1.1" xmlns="http://www.w3.org/2000/svg" width="144" height="144">
<path d="M0 0 C1.19074631 0.00607269 1.19074631 0.00607269 2.4055481 0.01226807 C3.6593779 0.00701111 3.6593779 0.00701111 4.9385376 0.00164795 C7.71017689 -0.00717701 10.48156232 -0.00131755 13.25320435 0.00543213 C15.17369638 0.0040857 17.09418809 0.00214535 19.01467896 -0.00036621 C23.0431136 -0.00331851 27.07145967 0.00098357 31.09988403 0.01031494 C36.27200878 0.02170953 41.44392597 0.01515062 46.61604309 0.00317001 C50.5827695 -0.00404573 54.54944644 -0.00176197 58.51617432 0.0034256 C60.42362492 0.00476289 62.33107997 0.00311163 64.23852539 -0.00153351 C66.90109206 -0.00659407 69.5633193 0.00110477 72.2258606 0.01226807 C73.01969147 0.0082196 73.81352234 0.00417114 74.63140869 0 C80.08717606 0.04252885 80.08717606 0.04252885 82.31570435 2.27105713 C82.56738663 4.13577271 82.56738663 4.13577271 82.56967163 6.4463501 C82.57531128 7.32128113 82.58095093 8.19621216 82.58676147 9.09765625 C82.58271301 10.05980042 82.57866455 11.02194458 82.57449341 12.01324463 C82.57799805 13.02469543 82.58150269 14.03614624 82.58511353 15.07824707 C82.59394328 18.4342528 82.58807725 21.79004912 82.58132935 25.14605713 C82.58267564 27.47011353 82.58461587 29.79416966 82.58712769 32.1182251 C82.59008064 36.99406612 82.58577578 41.86983397 82.57644653 46.7456665 C82.56505196 53.00739363 82.57161051 59.26894933 82.58359146 65.53067017 C82.59080542 70.33121033 82.58852426 75.1317096 82.58333588 79.93225098 C82.58199809 82.24161804 82.58365156 84.55098878 82.58829498 86.86035156 C82.59335257 90.08329152 82.5856607 93.30595068 82.57449341 96.52886963 C82.57854187 97.49101379 82.58259033 98.45315796 82.58676147 99.44445801 C82.58112183 100.31938904 82.57548218 101.19432007 82.56967163 102.09576416 C82.56891758 102.8582547 82.56816353 103.62074524 82.56738663 104.40634155 C82.31570435 106.27105713 82.31570435 106.27105713 80.31570435 108.27105713 C77.58565311 108.46961238 74.95703702 108.54377493 72.2258606 108.52984619 C71.38997406 108.53335083 70.55408752 108.53685547 69.69287109 108.54046631 C66.9212318 108.54929126 64.14984637 108.54343181 61.37820435 108.53668213 C59.45771231 108.53802856 57.5372206 108.53996891 55.61672974 108.54248047 C51.58829509 108.54543277 47.55994903 108.54113069 43.53152466 108.53179932 C38.35939992 108.52040473 33.18748272 108.52696364 28.0153656 108.53894424 C24.04863919 108.54615999 20.08196225 108.54387623 16.11523438 108.53868866 C14.20778377 108.53735137 12.30032872 108.53900263 10.3928833 108.54364777 C7.73031663 108.54870832 5.06808939 108.54100948 2.4055481 108.52984619 C1.61171722 108.53389465 0.81788635 108.53794312 0 108.54211426 C-5.45576737 108.49958541 -5.45576737 108.49958541 -7.68429565 106.27105713 C-7.91134644 104.0244751 -7.91134644 104.0244751 -7.87960815 101.26324463 C-7.87316284 100.27711182 -7.86671753 99.290979 -7.8600769 98.27496338 C-7.84331909 97.24242432 -7.82656128 96.20988525 -7.80929565 95.14605713 C-7.80027222 94.10578369 -7.79124878 93.06551025 -7.7819519 91.99371338 C-7.75833312 89.4192662 -7.72539714 86.84527501 -7.68429565 84.27105713 C-8.52202515 84.28153076 -9.35975464 84.29200439 -10.22286987 84.30279541 C-13.32767729 84.33685732 -16.43238958 84.36194624 -19.537323 84.38092041 C-21.54340926 84.3959382 -23.5494089 84.42134694 -25.5553894 84.44683838 C-26.81222534 84.45328369 -28.06906128 84.459729 -29.36398315 84.46636963 C-30.5265564 84.47684326 -31.68912964 84.48731689 -32.88693237 84.49810791 C-35.68429565 84.27105713 -35.68429565 84.27105713 -37.68429565 82.27105713 C-37.93826294 79.91802979 -37.93826294 79.91802979 -37.94308472 76.93511963 C-37.94938904 75.82056396 -37.95569336 74.7060083 -37.96218872 73.55767822 C-37.95814026 72.34934326 -37.9540918 71.1410083 -37.94992065 69.89605713 C-37.95183411 68.66065186 -37.95374756 67.42524658 -37.95571899 66.15240479 C-37.95743176 62.86514306 -37.94936265 59.57806926 -37.9382019 56.29083252 C-37.93429963 54.27311183 -37.93818736 52.25556512 -37.94503784 50.237854 C-37.95735569 46.37383884 -37.95590543 42.51008285 -37.94992065 38.64605713 C-37.95396912 37.43772217 -37.95801758 36.22938721 -37.96218872 34.98443604 C-37.9558844 33.86988037 -37.94958008 32.75532471 -37.94308472 31.60699463 C-37.94149353 30.62263428 -37.93990234 29.63827393 -37.93826294 28.62408447 C-37.68429565 26.27105713 -37.68429565 26.27105713 -35.68429565 24.27105713 C-32.88693237 24.04400635 -32.88693237 24.04400635 -29.36398315 24.07574463 C-27.47872925 24.0854126 -27.47872925 24.0854126 -25.5553894 24.09527588 C-23.577323 24.1204126 -23.577323 24.1204126 -21.55929565 24.14605713 C-20.21945845 24.1560873 -18.87961414 24.16521309 -17.5397644 24.17340088 C-14.25442993 24.19703638 -10.969451 24.22998479 -7.68429565 24.27105713 C-7.69476929 23.61508545 -7.70524292 22.95911377 -7.71603394 22.28326416 C-7.75752068 19.32090055 -7.78359827 16.35859797 -7.80929565 13.39605713 C-7.82605347 12.36351807 -7.84281128 11.330979 -7.8600769 10.26715088 C-7.86652222 9.28101807 -7.87296753 8.29488525 -7.87960815 7.27886963 C-7.89008179 6.36766357 -7.90055542 5.45645752 -7.91134644 4.51763916 C-7.41370567 -0.40632896 -4.17316247 0.03253067 0 0 Z " fill="#02498D" transform="translate(49.684295654296875,17.72894287109375)"/>
<path d="M0 0 C1.19074631 0.00607269 1.19074631 0.00607269 2.4055481 0.01226807 C3.6593779 0.00701111 3.6593779 0.00701111 4.9385376 0.00164795 C7.71017689 -0.00717701 10.48156232 -0.00131755 13.25320435 0.00543213 C15.17369638 0.0040857 17.09418809 0.00214535 19.01467896 -0.00036621 C23.0431136 -0.00331851 27.07145967 0.00098357 31.09988403 0.01031494 C36.27200878 0.02170953 41.44392597 0.01515062 46.61604309 0.00317001 C50.5827695 -0.00404573 54.54944644 -0.00176197 58.51617432 0.0034256 C60.42362492 0.00476289 62.33107997 0.00311163 64.23852539 -0.00153351 C66.90109206 -0.00659407 69.5633193 0.00110477 72.2258606 0.01226807 C73.01969147 0.0082196 73.81352234 0.00417114 74.63140869 0 C80.08717606 0.04252885 80.08717606 0.04252885 82.31570435 2.27105713 C82.50351185 4.80082248 82.56762341 7.22013118 82.54275513 9.75006104 C82.54304718 10.52088516 82.54333923 11.29170929 82.54364014 12.08589172 C82.54224409 14.63991458 82.52667014 17.19364758 82.51101685 19.74761963 C82.50728769 21.51595907 82.50444026 23.28430058 82.50244141 25.05264282 C82.49479727 29.71174808 82.47514213 34.37072907 82.45303345 39.02978516 C82.42899911 44.61729362 82.41979775 50.20484358 82.40812683 55.79238892 C82.38871814 64.28536481 82.35040108 72.77806791 82.31570435 81.27105713 C62.51570435 81.27105713 42.71570435 81.27105713 22.31570435 81.27105713 C21.94070435 54.39605713 21.94070435 54.39605713 21.837677 45.90826416 C21.80248542 43.69845345 21.76656578 41.48865416 21.72976685 39.27886963 C21.71840698 38.12314453 21.70704712 36.96741943 21.69534302 35.77667236 C21.66525146 34.13251343 21.66525146 34.13251343 21.634552 32.45513916 C21.62122833 31.50027618 21.60790466 30.54541321 21.59417725 29.56161499 C21.53074503 27.07503066 21.53074503 27.07503066 19.31570435 25.27105713 C16.50167752 24.89866486 16.50167752 24.89866486 13.21414185 24.85699463 C12.0024231 24.81832275 10.79070435 24.77965088 9.54226685 24.73980713 C8.27125122 24.70886963 7.0002356 24.67793213 5.69070435 24.64605713 C4.41195435 24.60738525 3.13320435 24.56871338 1.81570435 24.52886963 C-1.35081582 24.43434664 -4.51732605 24.34879356 -7.68429565 24.27105713 C-7.74217349 20.64612379 -7.77784986 17.02130856 -7.80929565 13.39605713 C-7.82605347 12.36351807 -7.84281128 11.330979 -7.8600769 10.26715088 C-7.86652222 9.28101807 -7.87296753 8.29488525 -7.87960815 7.27886963 C-7.89008179 6.36766357 -7.90055542 5.45645752 -7.91134644 4.51763916 C-7.41370567 -0.40632896 -4.17316247 0.03253067 0 0 Z " fill="#2C8BD3" transform="translate(49.684295654296875,17.72894287109375)"/>
<path d="M0 0 C2.55630493 -0.32279968 2.55630493 -0.32279968 5.82666016 -0.2487793 C7.65833237 -0.21840828 7.65833237 -0.21840828 9.52700806 -0.18742371 C10.8643686 -0.15001125 12.20171994 -0.11226843 13.5390625 -0.07421875 C14.90381263 -0.04619021 16.26859084 -0.01949931 17.63339233 0.00590515 C21.22752405 0.0764115 24.82098647 0.16512015 28.41461182 0.25756836 C32.08086478 0.34868054 35.74745861 0.42265181 39.4140625 0.49804688 C46.60981987 0.64854785 53.8049564 0.81827134 61 1 C61.05784708 5.12494151 61.09354407 9.24977944 61.125 13.375 C61.14175781 14.550625 61.15851563 15.72625 61.17578125 16.9375 C61.18222656 18.05898437 61.18867188 19.18046875 61.1953125 20.3359375 C61.20578613 21.37282715 61.21625977 22.4097168 61.22705078 23.47802734 C61 26 61 26 59 28 C56.26994877 28.19855525 53.64133268 28.2727178 50.91015625 28.25878906 C49.65632645 28.26404602 49.65632645 28.26404602 48.37716675 28.26940918 C45.60552746 28.27823414 42.83414203 28.27237468 40.0625 28.265625 C38.14200796 28.26697143 36.22151626 28.26891178 34.30102539 28.27142334 C30.27259074 28.27437564 26.24424468 28.27007356 22.21582031 28.26074219 C17.04369557 28.2493476 11.87177838 28.25590651 6.69966125 28.26788712 C2.73293484 28.27510286 -1.2337421 28.2728191 -5.20046997 28.26763153 C-7.10792058 28.26629424 -9.01537563 28.2679455 -10.92282104 28.27259064 C-13.58538772 28.27765119 -16.24761496 28.26995235 -18.91015625 28.25878906 C-19.70398712 28.26283752 -20.49781799 28.26688599 -21.31570435 28.27105713 C-26.77147172 28.22852828 -26.77147172 28.22852828 -29 26 C-29.22705078 23.75341797 -29.22705078 23.75341797 -29.1953125 20.9921875 C-29.18886719 20.00605469 -29.18242188 19.01992187 -29.17578125 18.00390625 C-29.15902344 16.97136719 -29.14226563 15.93882813 -29.125 14.875 C-29.11597656 13.83472656 -29.10695312 12.79445313 -29.09765625 11.72265625 C-29.07403747 9.14820908 -29.04110149 6.57421788 -29 4 C-28.19256348 3.98541748 -27.38512695 3.97083496 -26.55322266 3.95581055 C-22.9099873 3.88153914 -19.26768967 3.78480975 -15.625 3.6875 C-13.71847656 3.65366211 -13.71847656 3.65366211 -11.7734375 3.61914062 C-10.56171875 3.58369141 -9.35 3.54824219 -8.1015625 3.51171875 C-6.42054443 3.47244263 -6.42054443 3.47244263 -4.70556641 3.43237305 C-3.81272949 3.28968994 -2.91989258 3.14700684 -2 3 C-1.34 2.01 -0.68 1.02 0 0 Z " fill="#2150A9" transform="translate(71,98)"/>
<path d="M0 0 C19.8 0 39.6 0 60 0 C60 8.91 60 17.82 60 27 C40.2 27 20.4 27 0 27 C0 18.09 0 9.18 0 0 Z " fill="#2D70C9" transform="translate(72,72)"/>
<path d="M0 0 C1.98 0 3.96 0 6 0 C6.19335938 0.86882813 6.38671875 1.73765625 6.5859375 2.6328125 C6.84632812 3.78523438 7.10671875 4.93765625 7.375 6.125 C7.63023438 7.26195313 7.88546875 8.39890625 8.1484375 9.5703125 C8.94636477 12.78398288 9.90790559 15.87566034 11 19 C11.27714844 17.79601562 11.55429687 16.59203125 11.83984375 15.3515625 C12.20559679 13.77601093 12.57148945 12.20049177 12.9375 10.625 C13.11990234 9.8309375 13.30230469 9.036875 13.49023438 8.21875 C13.66748047 7.45820312 13.84472656 6.69765625 14.02734375 5.9140625 C14.18968506 5.2123291 14.35202637 4.5105957 14.51928711 3.78759766 C15 2 15 2 16 0 C18.31 0 20.62 0 23 0 C24.32 5.94 25.64 11.88 27 18 C27.33 18 27.66 18 28 18 C28.20496094 16.86820313 28.40992187 15.73640625 28.62109375 14.5703125 C28.89306972 13.08851239 29.16521387 11.60674315 29.4375 10.125 C29.57220703 9.37863281 29.70691406 8.63226563 29.84570312 7.86328125 C30.88671875 2.2265625 30.88671875 2.2265625 32 0 C33.98 0 35.96 0 38 0 C36.95473003 7.1380936 35.57756973 14.16530272 33.9375 21.1875 C33.7631543 21.94216553 33.58880859 22.69683105 33.40917969 23.47436523 C32.12468236 28.87531764 32.12468236 28.87531764 31 30 C28.69 30 26.38 30 24 30 C21.525 19.605 21.525 19.605 19 9 C17.72686676 14.78830779 17.72686676 14.78830779 16.45727539 20.57739258 C16.21738892 21.66250122 16.21738892 21.66250122 15.97265625 22.76953125 C15.81031494 23.50792236 15.64797363 24.24631348 15.48071289 25.00708008 C15 27 15 27 14 30 C11.69 30 9.38 30 7 30 C5.32811143 24.28120357 3.82795342 18.52802405 2.375 12.75 C2.14554688 11.8528125 1.91609375 10.955625 1.6796875 10.03125 C1.463125 9.17015625 1.2465625 8.3090625 1.0234375 7.421875 C0.82669434 6.64424805 0.62995117 5.86662109 0.42724609 5.06542969 C0 3 0 3 0 0 Z " fill="#F2F5F9" transform="translate(23,57)"/>
</svg>
