<svg xmlns="http://www.w3.org/2000/svg" enable-background="new 0 0 2800 2000" viewBox="0 0 2800 2000"><rect width="2000" height="2000" x="400" fill="#fff" fill-rule="evenodd" clip-rule="evenodd" display="none"/><path fill="#d5f0ff" d="M707.58,1359.79c19.22,29.67,207.5,255.11,359.27,257.85c136.87,2.47,181.26-195.94,325.02-181.25
	c107.05,10.94,120.67,124.87,244.7,164.42c121.91,38.87,283.1-8.02,364.25-95.77c422.15-456.43,199.57-1136.24-156.86-1327.9
	c-160.95-86.55-258.86,152.78-596.89,109.99c-203.27-25.73-165.41-147.52-340.55-66.72C703.32,314.16,374.55,845.69,707.58,1359.79z
	" display="none" opacity=".5"/><path fill="#d5f0ff" d="M563.5,803.19c-44.41,110.49-204.85,90.7-308.7,220.27c-107.87,134.58-96.65,351.08,51.12,473.55
			c149.95,124.27,380.62,102.08,493.09,91.26c184.83-17.78,250.27-72.49,394.68-112.48c505.52-140.01,816.11,222.26,1135.94,73.05
			c174.04-81.19,282.68-282.22,238.44-416.85c-75.73-230.44-613.23-237.68-598.33-357.03c12.53-100.28,393.66-107.9,448.53-259.2
			c49.19-135.64-197.33-294.47-366.61-360.2c-78.02-30.3-306.6-122.68-486.62-36.77c-142.43,67.97-130.94,180.5-257.67,216.04
			c-152.78,42.84-223-105.71-444.25-104.25c-163.01,1.08-364.82,83.31-405.58,202.86C409.63,573.99,617.07,669.94,563.5,803.19z" opacity=".42"/><path fill="#d5f0ff" d="M652.5,902.28c-38.46,109.41-184.41,87.01-276.49,214.45c-95.66,132.38-81.86,348.41,54.3,472.98
			c138.16,126.4,347.15,108.12,449.04,99.22c167.45-14.64,225.93-68.09,356.33-105.56c456.46-131.15,744.4,235.21,1032.18,91.79
			c156.6-78.04,251.85-276.65,209.45-411.61c-72.58-231.01-560.53-247.2-548.99-365.93c9.7-99.77,355.48-101.01,402.75-250.93
			c42.38-134.41-184.01-296.88-338.74-365.23c-71.32-31.51-280.31-127.43-442.26-44.78c-128.13,65.39-115.83,177.77-230.25,211.09
			c-137.95,40.17-204.16-109.11-404.93-111.35c-147.93-1.65-329.71,76.97-364.72,195.48C509.02,671.21,698.89,770.32,652.5,902.28z" opacity=".6"/><path fill="#84b2fe" d="M698.76,161.99c-10.55-0.48-20.75,0.9-30.29,3.83c-19.64-27.26-51.11-45.6-87.28-47.23
			c-19.51-0.88-38.09,3.21-54.53,11.14c-6.5-17.83-23.21-30.9-43.35-31.81c-26.73-1.21-49.37,19.48-50.58,46.21
			c-0.19,4.17,0.16,8.23,0.98,12.13c-8.19,4.49-15.81,9.97-22.67,16.31c-8.77-4.77-18.49-8.15-28.92-9.78
			c-48.8-7.63-94.54,25.74-102.17,74.54c-7.63,48.8,25.74,94.54,74.54,102.17c17.58,2.75,34.76,0.18,49.91-6.52
			c16.84,18.43,39.82,31.47,66.4,35.63c28.29,4.42,55.78-1.98,78.24-16.13c10.22,7.56,22.37,12.84,35.8,14.94
			c31.14,4.87,60.92-8.61,78.34-32.4c8.6,3.24,17.85,5.21,27.53,5.65c49.34,2.22,91.14-35.97,93.36-85.31
			C786.29,206.01,748.1,164.21,698.76,161.99z"/><path fill="#fff" d="M691.05,174.5c-10.06-0.45-19.79,0.86-28.9,3.66c-18.74-26-48.75-43.5-83.26-45.06
			c-18.61-0.84-36.34,3.06-52.01,10.63c-6.2-17-22.14-29.48-41.35-30.35c-25.5-1.15-47.1,18.59-48.24,44.08
			c-0.18,3.97,0.15,7.85,0.93,11.57c-7.81,4.29-15.08,9.51-21.62,15.56c-8.37-4.55-17.64-7.77-27.59-9.33
			c-46.55-7.28-90.18,24.55-97.46,71.1c-7.28,46.55,24.55,90.18,71.1,97.46c16.77,2.62,33.16,0.17,47.61-6.22
			c16.06,17.58,37.98,30.02,63.34,33.99c26.99,4.22,53.2-1.89,74.63-15.39c9.75,7.22,21.34,12.25,34.15,14.25
			c29.71,4.65,58.11-8.21,74.73-30.91c8.21,3.09,17.03,4.97,26.26,5.39c47.07,2.12,86.94-34.31,89.06-81.38
			C774.55,216.5,738.12,176.63,691.05,174.5z"/><path fill="#62cbec" d="M986.41,523.7c-65.48-9.85-156.08-192.83-81.81-241.4c4.84-3.16,31.89-20.86,72.47-15.67
				c43.72,5.59,75.83,34.26,79.52,37.55C1134.96,374.16,1052.37,533.62,986.41,523.7z"/><path fill="#bbe6f9" d="M995.66,530.04c-65.48-9.85-156.08-192.83-81.81-241.4c4.84-3.16,31.89-20.85,72.46-15.67
				c43.72,5.59,75.83,34.26,79.52,37.55C1144.21,380.51,1061.62,539.97,995.66,530.04z"/><path fill="#fff" d="M978.07,585.7c-0.04-0.01-0.08-0.02-0.11-0.04c-1.64-0.54-2.65-1.85-2.25-2.92
						c18.58-49.54,26.51-102.2,23.58-156.53c-2.34-43.44-11.67-87.96-27.73-132.34c-0.43-1.2,0.54-2.2,2.17-2.23
						c1.63-0.03,3.31,0.91,3.74,2.11c16.18,44.7,25.57,89.54,27.93,133.3c2.95,54.72-5.04,107.76-23.75,157.66
						C981.27,585.76,979.68,586.19,978.07,585.7z"/><path fill="#fff" d="M994.79,365.44c-0.62-0.19-1.21-0.51-1.67-0.94c-1.12-1.05-1.01-2.37,0.25-2.94
						c11.63-5.25,21.01-12.23,27.89-20.73c6.66-8.24,10.68-17.58,11.95-27.75c0.14-1.14,1.62-1.76,3.3-1.39
						c1.68,0.37,2.93,1.6,2.79,2.74c-1.33,10.69-5.56,20.5-12.56,29.17c-7.23,8.94-17.09,16.27-29.31,21.79
						C996.69,365.72,995.71,365.72,994.79,365.44z"/><path fill="#fff" d="M1005.77,454.94c-0.89-0.27-1.68-0.8-2.12-1.47c-0.76-1.17-0.15-2.34,1.36-2.61
						c13.92-2.54,26.18-7.08,36.44-13.47c9.94-6.19,17.59-13.88,22.72-22.83c0.57-1,2.32-1.29,3.92-0.63c1.59,0.66,2.41,2,1.84,3
						c-5.39,9.41-13.42,17.49-23.87,24c-10.78,6.72-23.67,11.48-38.29,14.16C1007.12,455.2,1006.42,455.14,1005.77,454.94z"/><path fill="#fff" d="M985.85,399.61c-12.51-3.81-24.49-8.83-35.74-14.97c-13.85-7.56-25.99-16.5-36.09-26.59
						c-1.08-1.07-0.89-2.38,0.41-2.91c1.3-0.53,3.23-0.09,4.31,0.98c9.61,9.59,21.17,18.11,34.34,25.3
						c13.6,7.42,28.33,13.12,43.78,16.93c1.68,0.42,2.87,1.66,2.67,2.79c-0.2,1.12-1.73,1.7-3.4,1.29
						C992.66,401.58,989.23,400.64,985.85,399.61z"/><path fill="#fff" d="M999.08,502.2c-0.16-0.05-0.32-0.11-0.48-0.18c-15.28-6.53-29.08-14.73-41.03-24.37
						c-11.58-9.35-20.92-19.66-27.76-30.65c-0.73-1.17-0.09-2.33,1.44-2.58c1.52-0.25,3.35,0.49,4.08,1.66
						c6.51,10.46,15.4,20.27,26.41,29.16c11.37,9.18,24.5,16.98,39.04,23.19c1.58,0.67,2.37,2.02,1.76,3.01
						C1002,502.34,1000.52,502.64,999.08,502.2z"/><g><path fill="#8bdcef" d="M915.16,524.88c-61.3,60.83-323.3,13.12-316.27-102.42c0.46-7.52,3.02-49.61,40.05-88.02
				c39.9-41.39,94.9-52.65,101.21-53.95C874.41,253,976.92,463.6,915.16,524.88z"/><path fill="#d2edf7" d="M929.01,520.14c-61.3,60.83-323.3,13.12-316.27-102.42c0.46-7.52,3.02-49.61,40.05-88.02
				c39.9-41.39,94.9-52.65,101.21-53.95C888.25,248.26,990.77,458.86,929.01,520.14z"/><path fill="#fff" d="M973.55,581.89c-0.04,0.03-0.08,0.06-0.12,0.09c-1.85,1.29-4,1.33-4.8,0.08
						c-37.36-58.01-86.28-107.33-145.39-146.57c-47.27-31.38-101.12-56.29-160.05-74.05c-1.59-0.48-1.88-2.27-0.64-4.01
						c1.24-1.73,3.53-2.75,5.12-2.27c59.36,17.89,113.6,42.98,161.21,74.59c59.55,39.53,108.82,89.2,146.45,147.63
						C976.1,578.6,975.31,580.59,973.55,581.89z"/><path fill="#fff" d="M756.12,392.85c-0.68,0.5-1.48,0.87-2.28,1.02c-1.98,0.35-3.27-0.79-2.88-2.55
						c3.56-16.25,3.57-31.5,0.03-45.32c-3.44-13.39-10.07-24.87-19.73-34.12c-1.08-1.03-0.58-3.07,1.12-4.54
						c1.7-1.47,3.95-1.82,5.04-0.79c10.14,9.72,17.12,21.78,20.73,35.86c3.73,14.52,3.72,30.55-0.03,47.63
						C757.89,391.08,757.12,392.11,756.12,392.85z"/><path fill="#fff" d="M858.32,451.07c-0.97,0.72-2.14,1.14-3.19,1.08c-1.81-0.12-2.56-1.67-1.67-3.46
						c8.18-16.54,12.98-32.9,14.29-48.61c1.26-15.23-0.82-29.21-6.2-41.55c-0.6-1.38,0.46-3.43,2.39-4.59
						c1.92-1.15,3.97-0.96,4.57,0.42c5.65,12.97,7.84,27.66,6.51,43.66c-1.37,16.52-6.42,33.7-15.01,51.09
						C859.63,449.87,859.03,450.55,858.32,451.07z"/><path fill="#fff" d="M784.9,428.82c-13.73,10.12-28.31,18.75-43.49,25.74c-18.69,8.6-37.51,14.34-55.92,17.06
						c-1.96,0.29-3.18-0.92-2.72-2.69c0.46-1.77,2.42-3.45,4.38-3.74c17.52-2.58,35.43-8.04,53.21-16.23
						c18.36-8.45,35.79-19.42,51.81-32.62c1.74-1.43,3.97-1.71,4.99-0.62c1.02,1.09,0.44,3.13-1.3,4.56
						C792.28,423.24,788.62,426.09,784.9,428.82z"/><path fill="#fff" d="M902.54,494.88c-0.18,0.13-0.36,0.25-0.56,0.37c-18.73,10.9-38.06,18.96-57.46,23.95
						c-18.8,4.83-36.86,6.57-53.68,5.17c-1.79-0.15-2.5-1.72-1.58-3.52c0.92-1.79,3.12-3.12,4.91-2.98
						c16.01,1.33,33.2-0.32,51.08-4.92c18.46-4.75,36.85-12.41,54.67-22.79c1.93-1.12,3.96-0.9,4.53,0.5
						C904.96,491.93,904.12,493.71,902.54,494.88z"/></g><g><path fill="#62cbec" d="M1938.06,569.57c-65.48-9.85-156.08-192.83-81.81-241.4c4.84-3.16,31.89-20.86,72.47-15.67
				c43.72,5.59,75.83,34.26,79.52,37.55C2086.62,420.03,2004.03,579.49,1938.06,569.57z"/><path fill="#bbe6f9" d="M1947.32,575.91c-65.48-9.85-156.08-192.83-81.81-241.4c4.84-3.16,31.89-20.85,72.46-15.67
				c43.72,5.59,75.83,34.26,79.52,37.55C2095.87,426.37,2013.28,585.84,1947.32,575.91z"/><path fill="#fff" d="M1929.73,631.57c-0.04-0.01-0.08-0.02-0.11-0.04c-1.64-0.54-2.65-1.85-2.25-2.92
						c18.58-49.54,26.51-102.2,23.58-156.53c-2.34-43.44-11.67-87.96-27.73-132.34c-0.43-1.2,0.54-2.2,2.17-2.23
						c1.63-0.03,3.31,0.91,3.74,2.11c16.18,44.7,25.57,89.54,27.93,133.3c2.95,54.72-5.04,107.76-23.75,157.66
						C1932.92,631.63,1931.34,632.06,1929.73,631.57z"/><path fill="#fff" d="M1946.45,411.3c-0.62-0.19-1.21-0.51-1.67-0.94c-1.12-1.05-1.01-2.37,0.25-2.94
						c11.63-5.25,21.01-12.23,27.89-20.73c6.66-8.24,10.68-17.58,11.95-27.75c0.14-1.14,1.62-1.76,3.3-1.39
						c1.68,0.37,2.93,1.6,2.79,2.74c-1.33,10.69-5.56,20.5-12.56,29.17c-7.23,8.94-17.09,16.27-29.31,21.79
						C1948.35,411.58,1947.36,411.58,1946.45,411.3z"/><path fill="#fff" d="M1957.43,500.81c-0.89-0.27-1.68-0.8-2.12-1.47c-0.76-1.17-0.15-2.34,1.36-2.61
						c13.92-2.54,26.18-7.08,36.44-13.47c9.94-6.19,17.59-13.88,22.72-22.83c0.57-1,2.32-1.29,3.92-0.63c1.59,0.66,2.41,2,1.84,3
						c-5.39,9.41-13.42,17.49-23.87,24c-10.78,6.72-23.67,11.48-38.29,14.16C1958.78,501.07,1958.08,501.01,1957.43,500.81z"/><path fill="#fff" d="M1937.5,445.48c-12.51-3.81-24.49-8.83-35.74-14.97c-13.85-7.56-25.99-16.5-36.09-26.59
						c-1.08-1.07-0.89-2.38,0.41-2.91c1.3-0.53,3.23-0.09,4.31,0.98c9.61,9.59,21.17,18.11,34.34,25.3
						c13.6,7.42,28.33,13.12,43.78,16.93c1.68,0.42,2.87,1.66,2.67,2.79c-0.2,1.12-1.73,1.7-3.4,1.29
						C1944.32,447.45,1940.89,446.51,1937.5,445.48z"/><path fill="#fff" d="M1950.74,548.06c-0.16-0.05-0.32-0.11-0.48-0.17c-15.28-6.53-29.08-14.73-41.03-24.37
						c-11.58-9.35-20.92-19.66-27.76-30.65c-0.73-1.17-0.08-2.33,1.44-2.58c1.52-0.25,3.35,0.49,4.08,1.66
						c6.51,10.46,15.4,20.27,26.41,29.16c11.37,9.18,24.5,16.98,39.04,23.19c1.58,0.67,2.37,2.02,1.76,3.01
						C1953.66,548.21,1952.18,548.5,1950.74,548.06z"/><g><path fill="#8bdcef" d="M1866.82,570.75c-61.3,60.83-323.3,13.12-316.27-102.42c0.46-7.52,3.02-49.61,40.05-88.02
				c39.9-41.39,94.9-52.65,101.21-53.95C1826.07,298.87,1928.58,509.46,1866.82,570.75z"/><path fill="#d2edf7" d="M1880.67,566.01c-61.3,60.83-323.3,13.12-316.27-102.42c0.46-7.52,3.02-49.61,40.05-88.02
				c39.9-41.39,94.9-52.65,101.21-53.95C1839.91,294.13,1942.43,504.73,1880.67,566.01z"/><path fill="#fff" d="M1925.21,627.75c-0.04,0.03-0.08,0.06-0.12,0.09c-1.85,1.29-4,1.33-4.8,0.08
						c-37.36-58.01-86.28-107.33-145.39-146.57c-47.27-31.38-101.12-56.29-160.05-74.05c-1.59-0.48-1.88-2.27-0.64-4.01
						c1.24-1.73,3.53-2.75,5.12-2.27c59.36,17.89,113.6,42.98,161.21,74.59c59.55,39.53,108.82,89.2,146.45,147.63
						C1927.75,624.46,1926.97,626.46,1925.21,627.75z"/><path fill="#fff" d="M1707.78,438.72c-0.68,0.5-1.48,0.87-2.28,1.02c-1.98,0.35-3.27-0.79-2.88-2.55
						c3.56-16.25,3.57-31.5,0.03-45.32c-3.44-13.39-10.07-24.87-19.73-34.12c-1.08-1.03-0.58-3.07,1.12-4.54
						c1.7-1.47,3.95-1.82,5.04-0.79c10.14,9.72,17.12,21.78,20.73,35.86c3.73,14.52,3.72,30.55-0.03,47.63
						C1709.55,436.95,1708.78,437.98,1707.78,438.72z"/><path fill="#fff" d="M1809.97,496.94c-0.97,0.72-2.14,1.14-3.19,1.08c-1.81-0.12-2.56-1.67-1.67-3.46
						c8.18-16.54,12.98-32.9,14.29-48.61c1.26-15.23-0.82-29.21-6.2-41.55c-0.6-1.38,0.46-3.43,2.39-4.59
						c1.92-1.15,3.97-0.96,4.57,0.42c5.65,12.97,7.84,27.66,6.51,43.66c-1.37,16.52-6.42,33.7-15.01,51.09
						C1811.29,495.73,1810.69,496.41,1809.97,496.94z"/><path fill="#fff" d="M1736.56,474.69c-13.73,10.12-28.31,18.75-43.49,25.74c-18.69,8.6-37.51,14.34-55.92,17.06
						c-1.96,0.29-3.18-0.92-2.72-2.69c0.46-1.77,2.42-3.45,4.38-3.74c17.52-2.58,35.43-8.04,53.21-16.23
						c18.36-8.45,35.79-19.42,51.81-32.62c1.74-1.43,3.97-1.71,4.99-0.62c1.02,1.09,0.44,3.13-1.3,4.56
						C1743.94,469.1,1740.28,471.95,1736.56,474.69z"/><path fill="#fff" d="M1854.2,540.75c-0.18,0.13-0.36,0.25-0.56,0.37c-18.73,10.9-38.06,18.96-57.46,23.95
						c-18.8,4.83-36.86,6.57-53.68,5.17c-1.79-0.15-2.5-1.72-1.58-3.52c0.92-1.79,3.12-3.12,4.91-2.97
						c16.01,1.33,33.2-0.32,51.08-4.92c18.46-4.75,36.85-12.41,54.67-22.79c1.93-1.12,3.96-0.9,4.53,0.5
						C1856.62,537.8,1855.78,539.58,1854.2,540.75z"/></g></g><g><path fill="#62cbec" d="M402.54,1653.52c51.25-65.96-25.17-311.95-135.28-291.71c-7.17,1.32-47.28,8.69-79.83,48.73
			c-35.08,43.15-39.47,97.27-39.97,103.48C136.74,1646.15,350.91,1719.98,402.54,1653.52z"/><path fill="#bbe6f9" d="M399.61,1667.36c51.25-65.96-25.17-311.95-135.28-291.71c-7.17,1.32-47.28,8.69-79.83,48.73
			c-35.08,43.15-39.47,97.27-39.98,103.48C133.8,1659.99,347.98,1733.82,399.61,1667.36z"/><path fill="#fff" d="M464.1,1702.92c0.02-0.04,0.05-0.09,0.07-0.13c1.03-1.92,0.81-3.99-0.49-4.62
					c-60.07-29.09-113.13-70.3-157.72-122.48c-35.65-41.72-65.86-90.51-89.8-145.02c-0.65-1.47-2.4-1.54-3.92-0.15
					c-1.52,1.39-2.23,3.71-1.58,5.18c24.11,54.91,54.54,104.05,90.45,146.07c44.91,52.56,98.36,94.06,158.86,123.37
					C461.24,1705.75,463.06,1704.76,464.1,1702.92z"/><path fill="#fff" d="M257.2,1516.24c0.4-0.72,0.66-1.52,0.71-2.31c0.11-1.94-1.14-3.04-2.79-2.47
					c-15.19,5.32-29.83,7.11-43.51,5.32c-13.26-1.74-25.06-6.77-35.07-14.95c-1.12-0.92-3.01-0.2-4.23,1.61
					c-1.21,1.8-1.29,4.01-0.17,4.93c10.52,8.6,22.92,13.89,36.85,15.72c14.38,1.88,29.77,0,45.73-5.59
					C255.7,1518.14,256.61,1517.28,257.2,1516.24z"/><path fill="#fff" d="M325.04,1607.56c0.57-1.02,0.85-2.19,0.66-3.19c-0.32-1.72-1.9-2.26-3.52-1.2
					c-14.93,9.78-30.07,16.31-45.01,19.4c-14.47,2.99-28.14,2.62-40.62-1.1c-1.4-0.42-3.24,0.85-4.12,2.83
					c-0.88,1.98-0.46,3.92,0.94,4.34c13.11,3.91,27.48,4.3,42.69,1.15c15.7-3.24,31.61-10.1,47.3-20.38
					C324.03,1608.96,324.61,1608.3,325.04,1607.56z"/><path fill="#fff" d="M295.1,1539.67c8.11-14.37,14.7-29.37,19.63-44.77c6.08-18.95,9.39-37.69,9.84-55.69
					c0.05-1.92-1.25-2.95-2.9-2.3c-1.65,0.65-3.03,2.73-3.08,4.64c-0.43,17.13-3.59,34.96-9.37,52.99
					c-5.97,18.61-14.47,36.63-25.27,53.56c-1.17,1.84-1.18,4.02-0.01,4.87c1.16,0.85,3.06,0.05,4.23-1.78
					C290.59,1547.4,292.9,1543.56,295.1,1539.67z"/><path fill="#fff" d="M372.26,1644.9c0.1-0.18,0.2-0.38,0.29-0.58c8.28-19.26,13.76-38.76,16.28-57.96
					c2.45-18.61,2.01-36.16-1.3-52.15c-0.35-1.7-1.95-2.2-3.56-1.11c-1.61,1.09-2.64,3.36-2.28,5.06
					c3.15,15.22,3.57,31.91,1.24,49.62c-2.4,18.28-7.61,36.83-15.49,55.16c-0.85,1.99-0.4,3.91,1.01,4.29
					C369.71,1647.57,371.33,1646.55,372.26,1644.9z"/></g><g><path fill="#8bdcef" d="M2302.17,1652.14c81.18,58.14,371.44-44.6,342.13-175.19c-1.91-8.5-12.58-56.06-61.93-93.08
			c-53.17-39.89-118.02-42.61-125.47-42.93C2298.59,1334.3,2220.39,1593.57,2302.17,1652.14z"/><path fill="#d2edf7" d="M2285.5,1649.28c81.18,58.14,371.44-44.6,342.13-175.19c-1.91-8.5-12.58-56.06-61.93-93.08
			c-53.17-39.89-118.02-42.61-125.47-42.93C2281.92,1331.44,2203.71,1590.71,2285.5,1649.28z"/><path fill="#fff" d="M2246.04,1727.97c0.05,0.03,0.11,0.05,0.16,0.08c2.35,1.14,4.81,0.78,5.5-0.8
					c31.95-73.1,78.7-138.41,138.95-194.1c48.17-44.53,105.04-82.89,169.04-114.02c1.73-0.84,1.72-2.94-0.01-4.69
					c-1.73-1.75-4.53-2.49-6.26-1.65c-64.46,31.35-121.75,69.99-170.26,114.84c-60.68,56.09-107.77,121.87-139.95,195.5
					C2242.52,1724.68,2243.79,1726.81,2246.04,1727.97z"/><path fill="#fff" d="M2459.38,1472.13c0.87,0.45,1.85,0.72,2.79,0.74c2.32,0.04,3.58-1.5,2.82-3.44
					c-7.06-17.9-9.88-35.3-8.38-51.73c1.46-15.92,6.92-30.24,16.23-42.58c1.04-1.38,0.1-3.61-2.12-4.97
					c-2.21-1.36-4.85-1.35-5.89,0.03c-9.79,12.96-15.52,28.02-17.06,44.75c-1.58,17.26,1.39,35.55,8.81,54.36
					C2457.03,1470.44,2458.1,1471.47,2459.38,1472.13z"/><path fill="#fff" d="M2353.46,1557.42c1.24,0.64,2.66,0.91,3.84,0.64c2.04-0.47,2.61-2.37,1.27-4.26
					c-12.38-17.37-20.88-35.16-25.26-52.85c-4.25-17.15-4.44-33.49-0.58-48.57c0.43-1.69-1.16-3.83-3.57-4.79
					c-2.41-0.96-4.71-0.37-5.14,1.32c-4.06,15.85-3.85,33.02,0.61,51.04c4.61,18.6,13.54,37.29,26.55,55.55
					C2351.73,1556.28,2352.55,1556.95,2353.46,1557.42z"/><path fill="#fff" d="M2433.15,1518.5c17.54,9.02,35.77,16.19,54.39,21.36c22.92,6.37,45.46,9.46,66.98,9.16
					c2.29-0.03,3.46-1.63,2.61-3.57c-0.85-1.94-3.4-3.49-5.69-3.46c-20.48,0.28-41.92-2.65-63.73-8.72
					c-22.51-6.26-44.43-15.57-65.15-27.69c-2.25-1.31-4.85-1.22-5.81,0.21c-0.96,1.43,0.08,3.65,2.33,4.97
					C2423.71,1513.47,2428.41,1516.05,2433.15,1518.5z"/><path fill="#fff" d="M2311.06,1615.57c0.23,0.12,0.46,0.22,0.71,0.32c23.39,8.99,46.94,14.63,69.99,16.74
					c22.34,2.05,43.28,0.71,62.23-3.99c2.02-0.5,2.54-2.43,1.16-4.3c-1.38-1.88-4.14-2.99-6.15-2.49
					c-18.03,4.47-37.95,5.75-59.21,3.8c-21.94-2.02-44.35-7.38-66.6-15.93c-2.41-0.93-4.69-0.3-5.07,1.41
					C2307.74,1612.65,2309.04,1614.53,2311.06,1615.57z"/></g><ellipse cx="1380.51" cy="1843.03" fill="#dfe6ff" rx="1178.06" ry="73.85"/><g><path fill="#84b2fe" d="M970.35,559.82h-536.1c-47.7,0-86.37,38.67-86.37,86.37v1090.83c0,47.7,38.67,86.36,86.37,86.36h536.1
				c47.7,0,86.37-38.67,86.37-86.36V646.19C1056.72,598.49,1018.05,559.82,970.35,559.82z"/><path fill="#fff" d="M970.35,1828.52h-536.1c-50.45,0-91.5-41.05-91.5-91.5V646.19c0-50.45,41.05-91.5,91.5-91.5h536.1
				c50.45,0,91.5,41.05,91.5,91.5v1090.83C1061.85,1787.48,1020.81,1828.52,970.35,1828.52z M434.25,564.96
				c-44.79,0-81.23,36.44-81.23,81.23v1090.83c0,44.79,36.44,81.23,81.23,81.23h536.1c44.79,0,81.23-36.44,81.23-81.23V646.19
				c0-44.79-36.44-81.23-81.23-81.23H434.25z"/><path fill="#bbd8f9" d="M1018.7,559.82h-536.1c-47.7,0-86.37,38.67-86.37,86.37v1090.83c0,47.7,38.67,86.36,86.37,86.36h536.1
				c47.7,0,86.37-38.67,86.37-86.36V646.19C1105.07,598.49,1066.4,559.82,1018.7,559.82z"/><path fill="#fff" d="M1018.7,1828.52h-536.1c-50.45,0-91.5-41.05-91.5-91.5V646.19c0-50.45,41.05-91.5,91.5-91.5h536.1
				c50.45,0,91.5,41.05,91.5,91.5v1090.83C1110.21,1787.48,1069.16,1828.52,1018.7,1828.52z M482.61,564.96
				c-44.79,0-81.23,36.44-81.23,81.23v1090.83c0,44.79,36.44,81.23,81.23,81.23h536.1c44.79,0,81.23-36.44,81.23-81.23V646.19
				c0-44.79-36.44-81.23-81.23-81.23H482.61z"/><rect width="606.47" height="960.04" x="447.42" y="711.58" fill="#fff"/><rect width="606.47" height="115.76" x="447.42" y="711.59" fill="#84b2fe"/><path fill="#84b2fe" d="M818.35,1718.89H709.66c-13.68,0-24.76,11.09-24.76,24.76l0,0c0,13.68,11.09,24.76,24.76,24.76h40.83
				c0.06,0,0.12,0,0.17,0h0c0.06,0,0.12,0,0.17,0h67.52c13.68,0,24.76-11.09,24.76-24.76l0,0
				C843.11,1729.97,832.02,1718.89,818.35,1718.89z"/><path fill="#fff" d="M818.35,1773.55H709.66c-16.49,0-29.9-13.41-29.9-29.9c0-16.49,13.41-29.9,29.9-29.9h108.69
				c16.49,0,29.9,13.41,29.9,29.9C848.25,1760.14,834.83,1773.55,818.35,1773.55z M709.66,1724.02c-10.82,0-19.63,8.81-19.63,19.63
				c0,10.82,8.81,19.63,19.63,19.63h108.69c10.82,0,19.63-8.81,19.63-19.63c0-10.82-8.81-19.63-19.63-19.63H709.66z"/><g><path fill="#84b2fe" d="M1790.67,559.82h536.1c47.7,0,86.37,38.67,86.37,86.37v1090.83c0,47.7-38.67,86.36-86.37,86.36h-536.1
				c-47.7,0-86.37-38.67-86.37-86.36V646.19C1704.31,598.49,1742.97,559.82,1790.67,559.82z"/><path fill="#fff" d="M1699.17,1737.02V646.19c0-50.45,41.05-91.5,91.5-91.5h536.1c50.45,0,91.5,41.05,91.5,91.5v1090.83
				c0,50.45-41.05,91.5-91.5,91.5h-536.1C1740.22,1828.52,1699.17,1787.48,1699.17,1737.02z M1790.67,564.96
				c-44.79,0-81.23,36.44-81.23,81.23v1090.83c0,44.79,36.44,81.23,81.23,81.23h536.1c44.79,0,81.23-36.44,81.23-81.23V646.19
				c0-44.79-36.44-81.23-81.23-81.23H1790.67z"/><path fill="#bbd8f9" d="M1742.32,559.82h536.1c47.7,0,86.37,38.67,86.37,86.37v1090.83c0,47.7-38.67,86.36-86.37,86.36h-536.1
				c-47.7,0-86.37-38.67-86.37-86.36V646.19C1655.96,598.49,1694.62,559.82,1742.32,559.82z"/><path fill="#fff" d="M1650.82,1737.02V646.19c0-50.45,41.05-91.5,91.5-91.5h536.1c50.45,0,91.5,41.05,91.5,91.5v1090.83
				c0,50.45-41.05,91.5-91.5,91.5h-536.1C1691.87,1828.52,1650.82,1787.48,1650.82,1737.02z M1742.32,564.96
				c-44.79,0-81.23,36.44-81.23,81.23v1090.83c0,44.79,36.44,81.23,81.23,81.23h536.1c44.79,0,81.23-36.44,81.23-81.23V646.19
				c0-44.79-36.44-81.23-81.23-81.23H1742.32z"/><rect width="606.47" height="960.04" x="1707.13" y="711.58" fill="#fff"/><rect width="606.47" height="115.76" x="1707.14" y="711.59" fill="#84b2fe" transform="rotate(-180 2010.37 769.467)"/><path fill="#84b2fe" d="M1942.68,1718.89h108.69c13.68,0,24.76,11.09,24.76,24.76l0,0c0,13.68-11.09,24.76-24.76,24.76h-40.83
				c-0.06,0-0.12,0-0.17,0h0c-0.06,0-0.12,0-0.17,0h-67.52c-13.68,0-24.76-11.09-24.76-24.76l0,0
				C1917.91,1729.97,1929,1718.89,1942.68,1718.89z"/><path fill="#fff" d="M1912.78,1743.65c0-16.49,13.41-29.9,29.9-29.9h108.69c16.49,0,29.9,13.41,29.9,29.9
				c0,16.49-13.41,29.9-29.9,29.9h-108.69C1926.19,1773.55,1912.78,1760.14,1912.78,1743.65z M1942.68,1724.02
				c-10.82,0-19.63,8.81-19.63,19.63c0,10.82,8.81,19.63,19.63,19.63h108.69c10.82,0,19.63-8.81,19.63-19.63
				c0-10.82-8.81-19.63-19.63-19.63H1942.68z"/></g><g><path fill="#ffcdad" d="M1613.76,1196.95c-12.37-8.38-16-4.35-29.17-12.65c-6.86-4.33-23.19-14.51-26.2-32.14
				c-3.24-18.99,9.22-40.92,20.12-41.43c2.54-0.12,4.53,0.94,4.99,1.2c7.81,4.37,3.08,16.8,9.8,28.79
				c5.48,9.78,16.54,15.63,19.97,13.37c3.51-2.31-2.61-12.1,3.2-20.99c1.45-2.22,5.17-6.79,8.06-6.03
				c6.3,1.65-2.95,25.55,8.33,44.88c10.35,17.73,29.84,16.36,30.78,28.06c0.8,9.96-12.29,22.18-22.84,21.31
				C1630.72,1220.47,1630.6,1208.36,1613.76,1196.95z"/><path fill="#8183f1" d="M1939.31,1173.56c-15.4,18.97-31.52,30.74-45.36,38.3c-106.79,58.33-246.36-42.48-252.84-47.3
				c-4.44,1.29-14.42,4.85-22.98,14.36c-6.73,7.47-9.56,15.26-10.78,19.6c10.47,11.59,128.96,138.71,282.99,110.71
				c53.66-9.76,93.83-35.1,119.09-55.16c11.45-22.13,7.68-49-9.13-66.53C1984.81,1171.4,1960.84,1165.89,1939.31,1173.56z"/><path fill="#060352" d="M1942.52,1056.98c-7.74-0.75-21.81-49.45-1.56-78.82c28.85-41.85,122.82-37.93,154.6,3.35
				c23.01,29.89-4.11,56.35,15.62,101.9c28.27,65.25,107.61,60.49,111.59,98.61c4.49,42.97-88.89,114.82-151.19,86.28
				c-36.57-16.76-55.66-63.56-55.55-100.61c0.15-52.98,39.49-94.32,26.58-106.07c-6.8-6.19-17.17,5.8-36.23-0.16
				c-24.58-7.69-30.93-32.13-44.16-29.77C1949.79,1033.91,1948,1057.51,1942.52,1056.98z"/><path fill="#0643a3" d="M2108.09,1511.46c-11.39,39.8-44.89,91.62-73.36,160.16H1914.9c6.81-69.54,20.29-130.61,35.24-181.66
				c0.72-2.5,1.73-5.72,3.12-9.39c5.23-13.8,15.87-33.87,36.73-45.43c18.38-10.17,41.5-11.98,62.62-7.57
				c20.93,4.35,39.89,14.78,50.32,29.17C2113.97,1471.95,2114.25,1489.95,2108.09,1511.46z"/><path fill="#084db2" d="M2117.82,1671.62h-124.31c-4.13-50.03,0.44-108.64,10.18-159.55c1.22-6.39,2.52-12.65,3.9-18.76
				c3.37-14.98,13.26-46.82,34.86-60.6c3.1-1.98,6.51-3.7,10.17-5.14c31.58-12.58,80.93-5.61,101.54,18.92
				c6.09,7.26,9.3,16.59,10.35,27.57v0.01C2169,1521.09,2134.04,1598.28,2117.82,1671.62z"/><path fill="#8183f1" d="M2171.76,1466.23c-0.01,0.03-0.04,0.04-0.05,0.06c-5.73,6.77-51.21,58.57-123.11,55.21
				c-48.9-2.28-81.96-28.79-93.62-39.35c-0.73-0.65-1.36-1.25-1.92-1.76c4.7-26.61,10.08-70.17,5.15-123.19
				c-0.21-2.21-0.43-4.4-0.65-6.57c-1.03-9.42-2.27-18.4-3.7-26.99c-12.56-76.35-37.46-121.06-11.73-155.56
				c19.31-25.89,54.83-28.95,60.52-29.32c32.44-2.17,56.84,16.02,69.04,25.04c10.99,8.14,21.4,19.81,31.06,34.62
				c19.67,30.1,36.29,73.17,48.57,125.74C2161.12,1366.06,2168.14,1413.99,2171.76,1466.23z"/><path fill="#66f" d="M2011.17,1136.88"/><path fill="#ffcdad" d="M1975.99,1111.15c-1.82,4.2-3.88,22.46-1.84,44.57c1.14,12.32,10.96,21.99,22.83,22.91
					c12.69,0.98,24.5-8.31,26.55-21.42c3.68-23.52,7.71-42.61,6.31-49.72c-3.04-15.4-9.81-26.57-14.24-32.79
					C2010.27,1076.7,1986.78,1086.15,1975.99,1111.15z"/><path fill="#fcdac8" d="M1958.82,1024.54c-8.45,1.77-11.7,14.6-15.4,24.32c-3.03,7.96-19.89,52.25,4.56,74.07
					c17.88,15.96,47.39,9.34,63.96,0.72c28.85-15.01,46.49-50.71,37.38-64.01c-8.18-11.94-31.39,3.75-58.81-12.7
					C1973.63,1036.83,1968.48,1022.52,1958.82,1024.54z"/><path fill="#fff" d="M1952.11,1110.95c5.26,1.87,14.04,4.13,24.97,2.94c7.87-0.86,14.29-3.22,18.78-5.32
					c-0.99,1.89-6.26,11.45-16.53,14.33C1969.29,1125.71,1958.5,1121.01,1952.11,1110.95z"/><path fill="#747bed" d="M2171.76,1466.23c-0.01,0.03-0.04,0.04-0.05,0.06c-6.5-9.5-13.65-19.11-21.49-28.75
				c-39.04-47.96-80.78-78.33-110.11-96.34c2.5-30.02,5.01-60.06,7.51-90.09c18.37-17.56,36.75-35.12,55.13-52.69
				c19.67,30.1,36.29,73.17,48.57,125.74C2161.12,1366.06,2168.14,1413.99,2171.76,1466.23z"/><path fill="#747bed" d="M2004.63,1244.42c-0.16,9.47-1.19,17.96-2.65,25.43c-6.32,32.28-23.11,58.97-44.41,80.78
				c-1.03-9.42-2.27-18.4-3.7-26.99c7.28-6.41,14.62-13.99,21.6-22.9C1990.79,1281.16,1999.57,1261.17,2004.63,1244.42z"/><path fill="#04367f" d="M943.56,1671.62h-137.1c-77.89-124.14-196.82-199.35-172.59-248.29c16.31-32.94,86.73-32.18,149.68-24.89
				C813.82,1419.79,907.37,1494.05,943.56,1671.62z"/><path fill="#0643a3" d="M816.22,1671.62H691.83c-27.22-157.92-103.4-279.74-59.48-316.22c27.35-22.71,85.94,0.44,141.64,31.57
				C794.86,1453.18,817.79,1551.76,816.22,1671.62z"/><path fill="#ffcdad" d="M1222.86,1160.97c16.08-9.56,20.32-4.25,37.4-13.66c8.9-4.9,30.06-16.43,35.12-38.25
				c5.45-23.5-8.51-51.83-22.1-53.27c-3.16-0.34-5.73,0.84-6.33,1.13c-10.09,4.88-5.08,20.77-14.37,35.27
				c-7.57,11.82-21.83,18.32-25.96,15.24c-4.22-3.15,4.16-14.93-2.45-26.48c-1.65-2.88-5.96-8.87-9.63-8.13
				c-7.99,1.6,1.81,32.16-13.72,55.49c-14.24,21.41-38.51,18.25-40.54,32.81c-1.73,12.39,13.72,28.64,26.98,28.32
				C1199.91,1189.12,1200.96,1173.98,1222.86,1160.97z"/><path fill="#84b2fe" d="M817.62,1107.72c17.85,24.84,37.13,40.75,53.88,51.23c129.2,80.79,311.09-34.94,319.55-40.48
				c5.45,1.94,17.66,7.13,27.66,19.64c7.86,9.83,10.82,19.78,12.04,25.3c-13.94,13.72-171.44,163.89-361.91,117.53
				c-66.36-16.15-114.7-50.8-144.8-77.74c-12.68-28.5-5.99-61.82,16.32-82.49C760.91,1101.67,791.28,1096.55,817.62,1107.72z"/><path fill="#84b2fe" d="M838.01,1264.96c-6.87,36.03-12.64,41.31-16.91,68.68c-4.99,32.04-2.61,60.14,1.22,81.3
				c1.01,5.58,2.12,10.68,3.23,15.23c-20.68,9.75-57.58,23.9-105.5,24.99c-40.72,0.92-73.36-7.93-93.66-15.16
				c-31.09-89.13-33.74-162.57-31.72-207.78c3.57-79.15,23.15-108.72,35.07-123.12c1.11-1.33,2.6-3.14,4.5-5.27
				c11.56-13.07,37.92-38.51,79.21-43.02c6.92-0.75,48.65-4.62,85.14,24.13c31.96,25.2,39.9,59.71,44.15,78.1
				C850.76,1198.02,845.21,1227.13,838.01,1264.96z"/><path fill="#fcb892" d="M788.74,1042.22c1.6,25.4-5.22,45.83-10.41,57.76c-4.99,15.49-20.39,25.1-35.89,22.88
				c-16.58-2.38-29.08-17.69-27.95-35.11c0.47-19.39,2.19-41.51,6.16-65.65c4.61-28.04,11.23-52.63,18.12-73.28
				C746.77,955.36,785.36,988.29,788.74,1042.22z"/><path fill="#ffcdad" d="M835.62,935.93c9.19,10.74,10.93,22.71,12.81,35.65c1.61,11.09,10.56,72.79-27.1,93.81
				c-26.08,14.56-62.1,2.65-82.34-17.41c-30.23-29.97-35.71-88.55-1.95-116.99C765.68,906.87,814.47,911.23,835.62,935.93z"/><path fill="#060352" d="M843.39,967.88c20.37-0.03,46.55-0.06,62.44-18.33c17.19-19.77,13.59-50.88,4.71-70.47
				c-16.49-36.38-61.9-56.68-76.37-45.66c-14.4,10.96,6.1,49.64-9.05,59.54c-11.67,7.62-27.22-13.08-57.34-11.76
				c-18.61,0.82-37.82,9.83-49.83,23.78c-32.42,37.66-5.51,103.34,3.25,103.12c6.98-0.18-0.25-42.66,22.38-54.96
				C766.13,940.88,788.34,967.95,843.39,967.88z"/><path fill="#fff" d="M819.46,1048.81c-6.86,0.8-18.99,1.3-32.91-3.38c-10.23-3.44-17.77-8.43-22.58-12.22
				c-0.5,1.75-0.94,4.21-0.54,7.02c1.39,9.81,11.91,16.58,20.34,18.65c10.53,2.58,19.8-1.68,26.54-4.78
				C814.23,1052.3,817.31,1050.34,819.46,1048.81z"/><path fill="#66f" d="M692.87,1067.98"/><path fill="#4e9cf9" d="M626.38,1439.98c-31.09-89.13-33.74-162.57-31.72-207.78c3.57-79.15,23.15-108.72,35.07-123.12
				c1.11-1.33,2.6-3.14,4.5-5.27c0.14,0.26,0.27,0.5,0.41,0.77c-0.83,0.75-1.62,1.53-2.39,2.32
				c-41.68,42.92-18.61,159.59,49.81,206.76c18.4,12.67,38.66,19.36,59.54,21.67c-14.27,3.47-41.65,12.16-68.12,35.09
				C643.77,1396.16,631.27,1425.95,626.38,1439.98z"/><path fill="#4e9cf9" d="M839.49,1257.13c-7.77,3.34-39.19,15.79-74.48,2.7c-8.24-3.06-30.87-11.81-45.6-35.97
				c-14.07-23.09-12.35-47.56-8.63-69.49c-0.31,6.28-1.69,48.05,31.04,79.1C782.12,1271.7,836.44,1257.96,839.49,1257.13z"/><path fill="#2c7efe" d="M1008.89,919l413.68,75.67c21.03,3.85,35.97,22.32,34.83,43.06c-0.69,12.6-1.39,25.2-2.08,37.79
					l381.72,69.83c27.06,4.95,42.41,33.25,31.23,57.56l-138.96,302.19c-7.91,17.19-26.89,26.81-46.03,23.31l-297.42-54.41
					l-145.13-26.55l-231-42.26c-19.6-3.59-34.12-19.96-34.86-39.32c-5.21-135.11-10.42-270.22-15.64-405.33
					C958.23,934.33,982.35,914.14,1008.89,919z"/><path fill="#fff" d="M1330.94,1087.7l169.82,31.06l326.14,59.66c15.94,2.92,24.91,20.02,18.24,34.79
					c-56.76,125.72-113.52,251.44-170.28,377.16c-4.72,10.44-15.94,16.33-27.22,14.27l-165.57-30.29l-294.94-53.95l-165.57-30.29
					c-11.27-2.06-19.69-11.54-20.4-22.98c-8.58-137.67-17.16-275.35-25.74-413.02c-1.01-16.17,13.44-29,29.38-26.08L1330.94,1087.7z
					"/><path fill="#2c7efe" d="M1320.61,1119.82l178.46,32.64l342.72,62.69c16.75,3.06,26.18,21.04,19.17,36.56
					c-59.65,132.11-119.29,264.23-178.94,396.34c-4.96,10.98-16.75,17.16-28.6,14.99l-173.99-31.83l-309.94-56.7l-173.99-31.83
					c-11.85-2.17-20.69-12.13-21.44-24.15c-9.01-144.67-18.03-289.35-27.04-434.02c-1.06-17,14.12-30.47,30.87-27.41
					L1320.61,1119.82z"/><g><path fill="#ffcdad" d="M1811.48,1475.87c-14.35,4.16-13.57,9.53-28.37,14.36c-7.71,2.52-25.98,8.57-41.47-0.38
					c-16.68-9.64-25.58-33.24-19.01-41.95c1.53-2.03,3.62-2.88,4.11-3.07c8.35-3.22,14.89,8.37,28.41,10.86
					c11.03,2.03,22.59-2.73,23.05-6.82c0.47-4.18-10.98-5.72-14.11-15.88c-0.78-2.54-1.92-8.31,0.51-10.05
					c5.29-3.79,17.77,18.6,39.85,22.27c20.25,3.37,31.65-12.5,41.25-5.75c8.17,5.75,9.22,23.63,1.8,31.18
					C1840.42,1477.85,1831.02,1470.2,1811.48,1475.87z"/><path fill="#8183f1" d="M2108.24,1207.98c-0.71,32.26-6.88,79.34-33.66,126.86c-76.88,136.38-250.38,146.31-265.98,146.96
					c-2.56-3.71-6.75-10.87-8.19-20.83c-1.84-12.65,1.79-22.6,3.63-26.85c4.59-1.12,63.6-16.3,116.45-52.63
					c37.45-25.76,71.79-62.13,81.48-111.65c1.45-7.47,2.49-15.96,2.65-25.43c0.17-10.19-0.67-21.51-3.14-33.93
					c7.86-21.46,27.42-36.38,49.73-37.98C2075.45,1170.77,2098.53,1185.04,2108.24,1207.98z"/></g><g><path fill="#ffcdad" d="M903.61,1271.01c11.32-1.91,18.25-16.48,27.73-24.85c4.13-3.65,15.31-11,20.28-14.42
					c10.39-7.14,16.71-7.11,26.6-17.05c4.23-4.25,11.68-13.01,12.94-23.37c1.26-10.36,0.33-29.42-9.8-38.2
					c-14.8-12.83-38.27-21.02-54.59-6.26c-21.47,19.43-14.69,53.48-29.08,77.8c-5.21,8.81-18.05,18.66-16.16,30.04
					C883.42,1266.09,891.04,1273.13,903.61,1271.01z"/><path fill="#84b2fe" d="M942.32,1248.15c0.02,18.6-106.39,97.63-200.73,87.18c-20.87-2.31-41.13-9-59.54-21.67
					c-68.42-47.17-91.49-163.84-49.81-206.76c0.77-0.78,1.56-1.57,2.39-2.32c21.12-19.35,58.91-25.56,74.62-11.1
					c13.27,12.22,5.97,34.72,1.53,60.87c-3.72,21.93-5.44,46.4,8.63,69.49c15.03,24.65,39.51,33.72,45.6,35.97
					c27.15,10.07,58.71,6.29,88.25-8.89c16.84-8.65,33.04-21.04,47.39-36.66c14.48,1.42,24.46,2.86,34.13,11.94
					C934.79,1226.23,942.31,1234.32,942.32,1248.15z"/></g></g></g><g><path fill="#84b2fe" d="M2243.89,248.36c14.31,1.58,27.76,5.59,40.01,11.55c32.21-32.59,78.47-50.67,127.55-45.25
			c26.47,2.93,50.65,12.35,71.12,26.5c12.52-22.65,37.78-36.75,65.11-33.73c36.27,4.01,62.41,36.66,58.41,72.92
			c-1.05,9.54-4.09,18.38-8.66,26.16c38.69,20.82,62.89,63.65,57.76,110.01c-6.74,60.95-61.61,104.9-122.56,98.16
			c-18.43-2.04-35.3-8.48-49.69-18.16c-29.73,20.66-66.78,31.07-105.6,26.78c-36.47-4.03-68.58-20.39-92.65-44.46
			c-20.22,10.05-43.47,14.62-67.59,11.95c-66.95-7.4-115.22-67.67-107.82-134.62C2116.68,289.23,2176.94,240.96,2243.89,248.36z"/><path fill="#fff" d="M2232.7,261.02c14.31,1.58,27.78,5.46,40.04,11.19c32.01-30.79,78.15-47.72,127.23-42.3
			c26.47,2.93,50.68,12.01,71.22,25.57c12.38-21.45,37.56-34.71,64.88-31.69c36.27,4.01,62.58,35.18,58.77,69.62
			c-1,9.06-3.99,17.45-8.51,24.81c38.78,20,63.2,60.84,58.33,104.86c-6.4,57.89-60.99,99.35-121.95,92.61
			c-18.43-2.04-35.33-8.25-49.76-17.53c-29.6,19.47-66.57,29.16-105.39,24.87c-36.47-4.03-68.65-19.76-92.84-42.76
			c-20.16,9.44-43.37,13.65-67.49,10.98c-66.95-7.4-115.52-64.94-108.49-128.52C2105.79,299.17,2165.75,253.62,2232.7,261.02z"/></g></svg>